mtl face_texture.mtl
usemtl face_texture
v 0.000000 0.450000 -0.106268
v 0.000000 0.450000 -0.106268
v 0.000000 0.450000 -0.106268
v 0.000000 0.450000 -0.106268
v 0.000000 0.450000 -0.106268
v 0.000000 0.450000 -0.106268
v 0.000000 0.450000 -0.106268
v 0.000000 0.450000 -0.106268
v -0.000000 0.450000 -0.106268
v -0.000000 0.450000 -0.106268
v -0.000000 0.450000 -0.106268
v -0.000000 0.450000 -0.106268
v -0.000000 0.450000 -0.106268
v -0.000000 0.450000 -0.106268
v -0.000000 0.450000 -0.106268
v -0.000000 0.450000 -0.106268
v -0.000000 0.450000 -0.106268
v -0.000000 0.450000 -0.106268
v -0.000000 0.450000 -0.106268
v -0.000000 0.450000 -0.106268
v -0.000000 0.450000 -0.106268
v -0.000000 0.450000 -0.106268
v -0.000000 0.450000 -0.106268
v -0.000000 0.450000 -0.106268
v 0.000000 0.450000 -0.106268
v 0.000000 0.450000 -0.106268
v 0.000000 0.450000 -0.106268
v 0.000000 0.450000 -0.106268
v 0.000000 0.450000 -0.106268
v 0.000000 0.450000 -0.106268
v 0.000000 0.450000 -0.106268
v 0.000000 0.450000 -0.106268
v 0.020286 0.447691 -0.106239
v 0.019870 0.447691 -0.101754
v 0.018642 0.447691 -0.097463
v 0.016650 0.447691 -0.093540
v 0.013976 0.447691 -0.090143
v 0.010730 0.447691 -0.087407
v 0.007045 0.447691 -0.085441
v 0.003072 0.447691 -0.084324
v -0.001027 0.447691 -0.084098
v -0.005085 0.447691 -0.084773
v -0.008934 0.447691 -0.086322
v -0.012417 0.447691 -0.088685
v -0.015392 0.447691 -0.091766
v -0.017737 0.447691 -0.095445
v -0.019355 0.447691 -0.099573
v -0.020181 0.447691 -0.103984
v -0.020181 0.447691 -0.108498
v -0.019355 0.447691 -0.112931
v -0.017737 0.447691 -0.117099
v -0.015392 0.447691 -0.120831
v -0.012417 0.447691 -0.123969
v -0.008934 0.447691 -0.126382
v -0.005085 0.447691 -0.127968
v -0.001027 0.447691 -0.128660
v 0.003072 0.447691 -0.128429
v 0.007045 0.447691 -0.127284
v 0.010730 0.447691 -0.125273
v 0.013976 0.447691 -0.122483
v 0.016650 0.447691 -0.119030
v 0.018642 0.447691 -0.115059
v 0.019870 0.447691 -0.110736
v 0.020286 0.447691 -0.106239
v 0.040672 0.440788 -0.106167
v 0.039839 0.440788 -0.097251
v 0.037376 0.440788 -0.088740
v 0.033382 0.440788 -0.080978
v 0.028021 0.440788 -0.074272
v 0.021514 0.440788 -0.068883
v 0.014126 0.440788 -0.065018
v 0.006159 0.440788 -0.062823
v -0.002060 0.440788 -0.062379
v -0.010194 0.440788 -0.063705
v -0.017912 0.440788 -0.066749
v -0.024895 0.440788 -0.071398
v -0.030860 0.440788 -0.077475
v -0.035561 0.440788 -0.084746
v -0.038807 0.440788 -0.092923
v -0.040463 0.440788 -0.101680
v -0.040463 0.440788 -0.110664
v -0.038807 0.440788 -0.119506
v -0.035561 0.440788 -0.127840
v -0.030860 0.440788 -0.135317
v -0.024895 0.440788 -0.141617
v -0.017912 0.440788 -0.146471
v -0.010194 0.440788 -0.149666
v -0.002060 0.440788 -0.151061
v 0.006159 0.440788 -0.150594
v 0.014126 0.440788 -0.148286
v 0.021514 0.440788 -0.144240
v 0.028021 0.440788 -0.138632
v 0.033382 0.440788 -0.131707
v 0.037376 0.440788 -0.123759
v 0.039839 0.440788 -0.115126
v 0.040672 0.440788 -0.106167
v 0.061246 0.429363 -0.106106
v 0.059992 0.429363 -0.092854
v 0.056282 0.429363 -0.080230
v 0.050268 0.429363 -0.068742
v 0.042196 0.429363 -0.058840
v 0.032397 0.429363 -0.050904
v 0.021271 0.429363 -0.045225
v 0.009274 0.429363 -0.042006
v -0.003102 0.429363 -0.041357
v -0.015351 0.429363 -0.043299
v -0.026972 0.429363 -0.047767
v -0.037489 0.429363 -0.054606
v -0.046471 0.429363 -0.063567
v -0.053550 0.429363 -0.074314
v -0.058437 0.429363 -0.086430
v -0.060931 0.429363 -0.099434
v -0.060931 0.429363 -0.112800
v -0.058437 0.429363 -0.125980
v -0.053550 0.429363 -0.138426
v -0.046471 0.429363 -0.149616
v -0.037489 0.429363 -0.159067
v -0.026972 0.429363 -0.166363
v -0.015351 0.429363 -0.171175
v -0.003102 0.429363 -0.173278
v 0.009274 0.429363 -0.172574
v 0.021271 0.429363 -0.169096
v 0.032397 0.429363 -0.163007
v 0.042196 0.429363 -0.154586
v 0.050268 0.429363 -0.144209
v 0.056282 0.429363 -0.132328
v 0.059992 0.429363 -0.119448
v 0.061246 0.429363 -0.106106
v 0.082067 0.413531 -0.106187
v 0.080387 0.413531 -0.088730
v 0.075416 0.413531 -0.072124
v 0.067358 0.413531 -0.057041
v 0.056542 0.413531 -0.044072
v 0.043411 0.413531 -0.033707
v 0.028502 0.413531 -0.026313
v 0.012427 0.413531 -0.022132
v -0.004157 0.413531 -0.021289
v -0.020570 0.413531 -0.023810
v -0.036142 0.413531 -0.029621
v -0.050234 0.413531 -0.038538
v -0.062269 0.413531 -0.050259
v -0.071755 0.413531 -0.064353
v -0.078303 0.413531 -0.080277
v -0.081646 0.413531 -0.097396
v -0.081646 0.413531 -0.115014
v -0.078303 0.413531 -0.132409
v -0.071755 0.413531 -0.148859
v -0.062269 0.413531 -0.163675
v -0.050234 0.413531 -0.176217
v -0.036142 0.413531 -0.185924
v -0.020570 0.413531 -0.192340
v -0.004157 0.413531 -0.195149
v 0.012427 0.413531 -0.194208
v 0.028502 0.413531 -0.189567
v 0.043411 0.413531 -0.181456
v 0.056542 0.413531 -0.170268
v 0.067358 0.413531 -0.156513
v 0.075416 0.413531 -0.140796
v 0.080387 0.413531 -0.123785
v 0.082067 0.413531 -0.106187
v 0.103158 0.393456 -0.106652
v 0.101047 0.393456 -0.085153
v 0.094798 0.393456 -0.064721
v 0.084669 0.393456 -0.046183
v 0.071073 0.393456 -0.030273
v 0.054567 0.393456 -0.017589
v 0.035827 0.393456 -0.008567
v 0.015621 0.393456 -0.003478
v -0.005225 0.393456 -0.002454
v -0.025857 0.393456 -0.005520
v -0.045430 0.393456 -0.012599
v -0.063144 0.393456 -0.023496
v -0.078272 0.393456 -0.037858
v -0.090196 0.393456 -0.055167
v -0.098427 0.393456 -0.074750
v -0.102629 0.393456 -0.095824
v -0.102629 0.393456 -0.117527
v -0.098427 0.393456 -0.138966
v -0.090196 0.393456 -0.159257
v -0.078272 0.393456 -0.177550
v -0.063144 0.393456 -0.193059
v -0.045430 0.393456 -0.205087
v -0.025857 0.393456 -0.213054
v -0.005225 0.393456 -0.216547
v 0.015621 0.393456 -0.215377
v 0.035827 0.393456 -0.209608
v 0.054567 0.393456 -0.199548
v 0.071073 0.393456 -0.185699
v 0.084669 0.393456 -0.168704
v 0.094798 0.393456 -0.149310
v 0.101047 0.393456 -0.128335
v 0.103158 0.393456 -0.106652
v 0.124493 0.369344 -0.107826
v 0.121944 0.369344 -0.082485
v 0.114404 0.369344 -0.058414
v 0.102179 0.369344 -0.036583
v 0.085771 0.369344 -0.017853
v 0.065852 0.369344 -0.002927
v 0.043237 0.369344 0.007684
v 0.018852 0.369344 0.013664
v -0.006305 0.369344 0.014866
v -0.031204 0.369344 0.011265
v -0.054826 0.369344 0.002942
v -0.076203 0.369344 -0.009878
v -0.094460 0.369344 -0.026783
v -0.108850 0.369344 -0.047161
v -0.118784 0.369344 -0.070228
v -0.123854 0.369344 -0.095061
v -0.123854 0.369344 -0.120648
v -0.118784 0.369344 -0.145933
v -0.108850 0.369344 -0.169864
v -0.094460 0.369344 -0.191432
v -0.076203 0.369344 -0.209709
v -0.054826 0.369344 -0.223878
v -0.031204 0.369344 -0.233264
v -0.006305 0.369344 -0.237381
v 0.018852 0.369344 -0.236002
v 0.043237 0.369344 -0.229204
v 0.065852 0.369344 -0.217353
v 0.085771 0.369344 -0.201036
v 0.102179 0.369344 -0.181004
v 0.114404 0.369344 -0.158132
v 0.121944 0.369344 -0.133395
v 0.124493 0.369344 -0.107826
v 0.145988 0.341441 -0.109924
v 0.143000 0.341441 -0.080984
v 0.134157 0.341441 -0.053531
v 0.119822 0.341441 -0.028642
v 0.100581 0.341441 -0.007252
v 0.077223 0.341441 0.009867
v 0.050703 0.341441 0.022108
v 0.022107 0.341441 0.029042
v -0.007394 0.341441 0.030440
v -0.036592 0.341441 0.026257
v -0.064292 0.341441 0.016629
v -0.089360 0.341441 0.001884
v -0.110770 0.341441 -0.017457
v -0.127644 0.341441 -0.040704
v -0.139293 0.341441 -0.067002
v -0.145239 0.341441 -0.095341
v -0.145239 0.341441 -0.124585
v -0.139293 0.341441 -0.153522
v -0.127644 0.341441 -0.180916
v -0.110770 0.341441 -0.205563
v -0.089360 0.341441 -0.226361
v -0.064292 0.341441 -0.242383
v -0.036592 0.341441 -0.252928
v -0.007394 0.341441 -0.257534
v 0.022107 0.341441 -0.255993
v 0.050703 0.341441 -0.248375
v 0.077223 0.341441 -0.235018
v 0.100581 0.341441 -0.216506
v 0.119822 0.341441 -0.193655
v 0.134157 0.341441 -0.167488
v 0.143000 0.341441 -0.139169
v 0.145988 0.341441 -0.109924
v 0.167502 0.310035 -0.112666
v 0.164073 0.310035 -0.080415
v 0.153927 0.310035 -0.049937
v 0.137480 0.310035 -0.022365
v 0.115403 0.310035 0.001391
v 0.088603 0.310035 0.020592
v 0.058174 0.310035 0.034553
v 0.025364 0.310035 0.042600
v -0.008484 0.310035 0.044237
v -0.041985 0.310035 0.039354
v -0.073767 0.310035 0.028271
v -0.102529 0.310035 0.011603
v -0.127094 0.310035 -0.009961
v -0.146455 0.310035 -0.035725
v -0.159820 0.310035 -0.064879
v -0.166643 0.310035 -0.096397
v -0.166643 0.310035 -0.129054
v -0.159820 0.310035 -0.161487
v -0.146455 0.310035 -0.192255
v -0.127094 0.310035 -0.219889
v -0.102529 0.310035 -0.243013
v -0.073767 0.310035 -0.260543
v -0.041985 0.310035 -0.271851
v -0.008484 0.310035 -0.276713
v 0.025364 0.310035 -0.275092
v 0.058174 0.310035 -0.266996
v 0.088603 0.310035 -0.252528
v 0.115403 0.310035 -0.232092
v 0.137480 0.310035 -0.206554
v 0.153927 0.310035 -0.177171
v 0.164073 0.310035 -0.145387
v 0.167502 0.310035 -0.112666
v 0.188829 0.275448 -0.115019
v 0.184964 0.275448 -0.079765
v 0.173526 0.275448 -0.046657
v 0.154984 0.275448 -0.016875
v 0.130097 0.275448 0.008764
v 0.099884 0.275448 0.029733
v 0.065581 0.275448 0.045394
v 0.028594 0.275448 0.054704
v -0.009564 0.275448 0.056632
v -0.047330 0.275448 0.050917
v -0.083159 0.275448 0.038284
v -0.115583 0.275448 0.019864
v -0.143275 0.275448 -0.003501
v -0.165102 0.275448 -0.031290
v -0.180169 0.275448 -0.062861
v -0.187860 0.275448 -0.097208
v -0.187860 0.275448 -0.133015
v -0.180169 0.275448 -0.168785
v -0.165102 0.275448 -0.202888
v -0.143275 0.275448 -0.233546
v -0.115583 0.275448 -0.258960
v -0.083159 0.275448 -0.277737
v -0.047330 0.275448 -0.289383
v -0.009564 0.275448 -0.294217
v 0.028594 0.275448 -0.292619
v 0.065581 0.275448 -0.284444
v 0.099884 0.275448 -0.269233
v 0.130097 0.275448 -0.247012
v 0.154984 0.275448 -0.218763
v 0.173526 0.275448 -0.186153
v 0.184964 0.275448 -0.151003
v 0.188829 0.275448 -0.115019
v 0.209703 0.238034 -0.115738
v 0.205410 0.238034 -0.077763
v 0.192708 0.238034 -0.042259
v 0.172117 0.238034 -0.010543
v 0.144478 0.238034 0.016543
v 0.110925 0.238034 0.038736
v 0.072831 0.238034 0.055720
v 0.031755 0.238034 0.066193
v -0.010621 0.238034 0.068410
v -0.052563 0.238034 0.061889
v -0.092352 0.238034 0.047933
v -0.128360 0.238034 0.028256
v -0.159114 0.238034 0.003606
v -0.183353 0.238034 -0.025860
v -0.200086 0.238034 -0.059612
v -0.208627 0.238034 -0.096534
v -0.208627 0.238034 -0.135181
v -0.200086 0.238034 -0.173968
v -0.183353 0.238034 -0.211170
v -0.159114 0.238034 -0.244778
v -0.128360 0.238034 -0.272517
v -0.092352 0.238034 -0.292490
v -0.052563 0.238034 -0.304251
v -0.010621 0.238034 -0.308865
v 0.031755 0.238034 -0.307363
v 0.072831 0.238034 -0.299354
v 0.110925 0.238034 -0.283546
v 0.144478 0.238034 -0.259522
v 0.172117 0.238034 -0.228563
v 0.192708 0.238034 -0.192884
v 0.205410 0.238034 -0.154660
v 0.209703 0.238034 -0.115738
v 0.229803 0.198177 -0.114656
v 0.225099 0.198177 -0.074261
v 0.211179 0.198177 -0.036367
v 0.188614 0.198177 -0.002484
v 0.158326 0.198177 0.026167
v 0.121557 0.198177 0.049155
v 0.079812 0.198177 0.066702
v 0.034798 0.198177 0.077791
v -0.011639 0.198177 0.080184
v -0.057601 0.198177 0.073194
v -0.101204 0.198177 0.058622
v -0.140664 0.198177 0.038353
v -0.174365 0.198177 0.012549
v -0.200927 0.198177 -0.018837
v -0.219264 0.198177 -0.054904
v -0.228624 0.198177 -0.094243
v -0.228624 0.198177 -0.135298
v -0.219264 0.198177 -0.176471
v -0.200927 0.198177 -0.216065
v -0.174365 0.198177 -0.252036
v -0.140664 0.198177 -0.281822
v -0.101204 0.198177 -0.303021
v -0.057601 0.198177 -0.315026
v -0.011639 0.198177 -0.319490
v 0.034798 0.198177 -0.318060
v 0.079812 0.198177 -0.310106
v 0.121557 0.198177 -0.293594
v 0.158326 0.198177 -0.267874
v 0.188614 0.198177 -0.234653
v 0.211179 0.198177 -0.196581
v 0.225099 0.198177 -0.155971
v 0.229803 0.198177 -0.114656
v 0.248757 0.156287 -0.113189
v 0.243665 0.156287 -0.070867
v 0.228597 0.156287 -0.030777
v 0.204171 0.156287 0.005529
v 0.171385 0.156287 0.036393
v 0.131584 0.156287 0.060425
v 0.086395 0.156287 0.077986
v 0.037669 0.156287 0.088999
v -0.012599 0.156287 0.091391
v -0.062352 0.156287 0.084425
v -0.109551 0.156287 0.069956
v -0.152266 0.156287 0.049285
v -0.188746 0.156287 0.021752
v -0.217500 0.156287 -0.012053
v -0.237349 0.156287 -0.050446
v -0.247481 0.156287 -0.091846
v -0.247481 0.156287 -0.134698
v -0.237349 0.156287 -0.177419
v -0.217500 0.156287 -0.218357
v -0.188746 0.156287 -0.255568
v -0.152266 0.156287 -0.286546
v -0.109551 0.156287 -0.308724
v -0.062352 0.156287 -0.321264
v -0.012599 0.156287 -0.325880
v 0.037669 0.156287 -0.324406
v 0.086395 0.156287 -0.316137
v 0.131584 0.156287 -0.298852
v 0.171385 0.156287 -0.272011
v 0.204171 0.156287 -0.237571
v 0.228597 0.156287 -0.198222
v 0.243665 0.156287 -0.156175
v 0.248757 0.156287 -0.113189
v 0.266158 0.112794 -0.112928
v 0.260710 0.112794 -0.069373
v 0.244588 0.112794 -0.027819
v 0.218453 0.112794 0.010228
v 0.183374 0.112794 0.043100
v 0.140788 0.112794 0.068831
v 0.092438 0.112794 0.086934
v 0.040304 0.112794 0.097771
v -0.013481 0.112794 0.100078
v -0.066713 0.112794 0.093315
v -0.117214 0.112794 0.078779
v -0.162917 0.112794 0.056952
v -0.201950 0.112794 0.027435
v -0.232714 0.112794 -0.008262
v -0.253952 0.112794 -0.048251
v -0.264792 0.112794 -0.090997
v -0.264792 0.112794 -0.134963
v -0.253952 0.112794 -0.178520
v -0.232714 0.112794 -0.219949
v -0.201950 0.112794 -0.257347
v -0.162917 0.112794 -0.288459
v -0.117214 0.112794 -0.311014
v -0.066713 0.112794 -0.324148
v -0.013481 0.112794 -0.329168
v 0.040304 0.112794 -0.327547
v 0.092438 0.112794 -0.318717
v 0.140788 0.112794 -0.300914
v 0.183374 0.112794 -0.273842
v 0.218453 0.112794 -0.239283
v 0.244588 0.112794 -0.199613
v 0.260710 0.112794 -0.156898
v 0.266158 0.112794 -0.112928
v 0.281572 0.068142 -0.113979
v 0.275809 0.068142 -0.069859
v 0.258753 0.068142 -0.027721
v 0.231104 0.068142 0.010968
v 0.193994 0.068142 0.044725
v 0.148942 0.068142 0.071810
v 0.097792 0.068142 0.090975
v 0.042638 0.068142 0.101925
v -0.014261 0.068142 0.104168
v -0.070577 0.068142 0.097499
v -0.124003 0.068142 0.082408
v -0.172352 0.068142 0.059209
v -0.213645 0.068142 0.028566
v -0.246192 0.068142 -0.007857
v -0.268659 0.068142 -0.048447
v -0.280128 0.068142 -0.091769
v -0.280128 0.068142 -0.136279
v -0.268659 0.068142 -0.180258
v -0.246192 0.068142 -0.221829
v -0.213645 0.068142 -0.258989
v -0.172352 0.068142 -0.289651
v -0.124003 0.068142 -0.312025
v -0.070577 0.068142 -0.325507
v -0.014261 0.068142 -0.330927
v 0.042638 0.068142 -0.329150
v 0.097792 0.068142 -0.319849
v 0.148942 0.068142 -0.301951
v 0.193994 0.068142 -0.275260
v 0.231104 0.068142 -0.241091
v 0.258753 0.068142 -0.201467
v 0.275809 0.068142 -0.158449
v 0.281572 0.068142 -0.113979
v 0.294557 0.022792 -0.115150
v 0.288527 0.022792 -0.070965
v 0.270685 0.022792 -0.028903
v 0.241761 0.022792 0.009608
v 0.202940 0.022792 0.043266
v 0.155810 0.022792 0.070588
v 0.102301 0.022792 0.090015
v 0.044604 0.022792 0.100701
v -0.014919 0.022792 0.102795
v -0.073831 0.022792 0.096459
v -0.129721 0.022792 0.081367
v -0.180300 0.022792 0.057823
v -0.223497 0.022792 0.027129
v -0.257545 0.022792 -0.009123
v -0.281048 0.022792 -0.049574
v -0.293045 0.022792 -0.092891
v -0.293045 0.022792 -0.137523
v -0.281048 0.022792 -0.181667
v -0.257545 0.022792 -0.223305
v -0.223497 0.022792 -0.260279
v -0.180300 0.022792 -0.290521
v -0.129721 0.022792 -0.312589
v -0.073831 0.022792 -0.326231
v -0.014919 0.022792 -0.331972
v 0.044604 0.022792 -0.330061
v 0.102301 0.022792 -0.320433
v 0.155810 0.022792 -0.302623
v 0.202940 0.022792 -0.276355
v 0.241761 0.022792 -0.242511
v 0.270685 0.022792 -0.202932
v 0.288527 0.022792 -0.159778
v 0.294557 0.022792 -0.115150
v 0.304673 -0.022792 -0.115262
v 0.298437 -0.022792 -0.071375
v 0.279982 -0.022792 -0.029777
v 0.250065 -0.022792 0.008097
v 0.209910 -0.022792 0.040997
v 0.161161 -0.022792 0.067493
v 0.105815 -0.022792 0.085773
v 0.046136 -0.022792 0.094844
v -0.015431 -0.022792 0.096390
v -0.076367 -0.022792 0.091420
v -0.134176 -0.022792 0.077769
v -0.186492 -0.022792 0.055154
v -0.231173 -0.022792 0.025248
v -0.266390 -0.022792 -0.010295
v -0.290701 -0.022792 -0.050193
v -0.303110 -0.022792 -0.093134
v -0.303110 -0.022792 -0.137535
v -0.290701 -0.022792 -0.181545
v -0.266390 -0.022792 -0.223083
v -0.231173 -0.022792 -0.259912
v -0.186492 -0.022792 -0.289946
v -0.134176 -0.022792 -0.311939
v -0.076367 -0.022792 -0.325975
v -0.015431 -0.022792 -0.332309
v 0.046136 -0.022792 -0.330146
v 0.105815 -0.022792 -0.319911
v 0.161161 -0.022792 -0.301971
v 0.209910 -0.022792 -0.275886
v 0.250065 -0.022792 -0.242227
v 0.279982 -0.022792 -0.202761
v 0.298437 -0.022792 -0.159714
v 0.304673 -0.022792 -0.115262
v 0.311509 -0.068142 -0.113939
v 0.305132 -0.068142 -0.070642
v 0.286263 -0.068142 -0.029695
v 0.255675 -0.068142 0.007426
v 0.214619 -0.068142 0.039432
v 0.164777 -0.068142 0.064785
v 0.108189 -0.068142 0.081229
v 0.047171 -0.068142 0.087145
v -0.015778 -0.068142 0.087287
v -0.078080 -0.068142 0.085447
v -0.137187 -0.068142 0.074280
v -0.190676 -0.068142 0.053063
v -0.236360 -0.068142 0.024151
v -0.272367 -0.068142 -0.010574
v -0.297223 -0.068142 -0.049776
v -0.309910 -0.068142 -0.092100
v -0.309910 -0.068142 -0.135932
v -0.297223 -0.068142 -0.179414
v -0.272367 -0.068142 -0.220487
v -0.236360 -0.068142 -0.256951
v -0.190676 -0.068142 -0.286780
v -0.137187 -0.068142 -0.308910
v -0.078080 -0.068142 -0.323917
v -0.015778 -0.068142 -0.332086
v 0.047171 -0.068142 -0.329035
v 0.108189 -0.068142 -0.317218
v 0.164777 -0.068142 -0.298810
v 0.214619 -0.068142 -0.272796
v 0.255675 -0.068142 -0.239432
v 0.286263 -0.068142 -0.200387
v 0.305132 -0.068142 -0.157841
v 0.311509 -0.068142 -0.113939
v 0.314688 -0.112794 -0.111551
v 0.308247 -0.112794 -0.069141
v 0.289185 -0.112794 -0.028989
v 0.258285 -0.112794 0.007420
v 0.216810 -0.112794 0.038791
v 0.166459 -0.112794 0.063644
v 0.109293 -0.112794 0.079692
v 0.047653 -0.112794 0.084038
v -0.015939 -0.112794 0.081382
v -0.078877 -0.112794 0.083481
v -0.138587 -0.112794 0.072951
v -0.192623 -0.112794 0.052150
v -0.238772 -0.112794 0.023816
v -0.275147 -0.112794 -0.010233
v -0.300256 -0.112794 -0.048684
v -0.313074 -0.112794 -0.090167
v -0.313074 -0.112794 -0.133072
v -0.300256 -0.112794 -0.175579
v -0.275147 -0.112794 -0.215713
v -0.238772 -0.112794 -0.251397
v -0.192623 -0.112794 -0.280752
v -0.138587 -0.112794 -0.302867
v -0.078877 -0.112794 -0.318826
v -0.015939 -0.112794 -0.331513
v 0.047653 -0.112794 -0.325417
v 0.109293 -0.112794 -0.311455
v 0.166459 -0.112794 -0.292703
v 0.216810 -0.112794 -0.266958
v 0.258285 -0.112794 -0.234240
v 0.289185 -0.112794 -0.196072
v 0.308247 -0.112794 -0.154495
v 0.314688 -0.112794 -0.111551
v 0.313894 -0.156287 -0.108782
v 0.307469 -0.156287 -0.067614
v 0.288456 -0.156287 -0.028511
v 0.257633 -0.156287 0.007064
v 0.216263 -0.156287 0.037849
v 0.166039 -0.156287 0.062522
v 0.109017 -0.156287 0.079174
v 0.047532 -0.156287 0.085358
v -0.015898 -0.156287 0.085000
v -0.078678 -0.156287 0.083677
v -0.138237 -0.156287 0.072006
v -0.192137 -0.156287 0.051048
v -0.238170 -0.156287 0.023131
v -0.274452 -0.156287 -0.010200
v -0.299499 -0.156287 -0.047707
v -0.312284 -0.156287 -0.088041
v -0.312284 -0.156287 -0.129624
v -0.299499 -0.156287 -0.170709
v -0.274452 -0.156287 -0.209434
v -0.238170 -0.156287 -0.243889
v -0.192137 -0.156287 -0.272364
v -0.138237 -0.156287 -0.293987
v -0.078678 -0.156287 -0.309556
v -0.015898 -0.156287 -0.319789
v 0.047532 -0.156287 -0.315594
v 0.109017 -0.156287 -0.302406
v 0.166039 -0.156287 -0.284029
v 0.216263 -0.156287 -0.258958
v 0.257633 -0.156287 -0.227312
v 0.288456 -0.156287 -0.190486
v 0.307469 -0.156287 -0.150343
v 0.313894 -0.156287 -0.108782
v 0.308880 -0.198177 -0.106205
v 0.302557 -0.198177 -0.066690
v 0.283848 -0.198177 -0.029019
v 0.253518 -0.198177 0.005378
v 0.212808 -0.198177 0.035258
v 0.163386 -0.198177 0.059400
v 0.107276 -0.198177 0.076223
v 0.046773 -0.198177 0.083768
v -0.015645 -0.198177 0.084321
v -0.077422 -0.198177 0.081241
v -0.136029 -0.198177 0.068850
v -0.189067 -0.198177 0.048132
v -0.234365 -0.198177 0.020956
v -0.270068 -0.198177 -0.011330
v -0.294715 -0.198177 -0.047530
v -0.307295 -0.198177 -0.086314
v -0.307295 -0.198177 -0.126158
v -0.294715 -0.198177 -0.165402
v -0.270068 -0.198177 -0.202311
v -0.234365 -0.198177 -0.235147
v -0.189067 -0.198177 -0.262369
v -0.136029 -0.198177 -0.283083
v -0.077422 -0.198177 -0.297610
v -0.015645 -0.198177 -0.306156
v 0.046773 -0.198177 -0.302830
v 0.107276 -0.198177 -0.291050
v 0.163386 -0.198177 -0.273552
v 0.212808 -0.198177 -0.249538
v 0.253518 -0.198177 -0.219343
v 0.283848 -0.198177 -0.184258
v 0.302557 -0.198177 -0.145962
v 0.308880 -0.198177 -0.106205
v 0.299484 -0.238034 -0.104105
v 0.293353 -0.238034 -0.066671
v 0.275213 -0.238034 -0.030874
v 0.245805 -0.238034 0.001905
v 0.206334 -0.238034 0.030438
v 0.158416 -0.238034 0.053554
v 0.104012 -0.238034 0.069810
v 0.045350 -0.238034 0.077048
v -0.015169 -0.238034 0.077270
v -0.075066 -0.238034 0.074712
v -0.131891 -0.238034 0.062654
v -0.183316 -0.238034 0.042752
v -0.227236 -0.238034 0.016774
v -0.261852 -0.238034 -0.014027
v -0.285749 -0.238034 -0.048477
v -0.297947 -0.238034 -0.085276
v -0.297947 -0.238034 -0.122965
v -0.285749 -0.238034 -0.159986
v -0.261852 -0.238034 -0.194734
v -0.227236 -0.238034 -0.225640
v -0.183316 -0.238034 -0.251324
v -0.131891 -0.238034 -0.270931
v -0.075066 -0.238034 -0.284695
v -0.015169 -0.238034 -0.293353
v 0.045350 -0.238034 -0.289827
v 0.104012 -0.238034 -0.278469
v 0.158416 -0.238034 -0.261906
v 0.206334 -0.238034 -0.239205
v 0.245805 -0.238034 -0.210760
v 0.275213 -0.238034 -0.177744
v 0.293353 -0.238034 -0.141659
v 0.299484 -0.238034 -0.104105
v 0.285637 -0.275448 -0.102532
v 0.279790 -0.275448 -0.067593
v 0.262488 -0.275448 -0.034107
v 0.234440 -0.275448 -0.003391
v 0.196794 -0.275448 0.023361
v 0.151091 -0.275448 0.044995
v 0.099203 -0.275448 0.060057
v 0.043253 -0.275448 0.065693
v -0.014467 -0.275448 0.063258
v -0.071596 -0.275448 0.064351
v -0.125793 -0.275448 0.053470
v -0.174840 -0.275448 0.034894
v -0.216729 -0.275448 0.010551
v -0.249745 -0.275448 -0.018325
v -0.272537 -0.275448 -0.050583
v -0.284171 -0.275448 -0.084967
v -0.284171 -0.275448 -0.120107
v -0.272537 -0.275448 -0.154551
v -0.249745 -0.275448 -0.186834
v -0.216729 -0.275448 -0.215549
v -0.174840 -0.275448 -0.239481
v -0.125793 -0.275448 -0.257896
v -0.071596 -0.275448 -0.271250
v -0.014467 -0.275448 -0.282892
v 0.043253 -0.275448 -0.276930
v 0.099203 -0.275448 -0.265092
v 0.151091 -0.275448 -0.249391
v 0.196794 -0.275448 -0.228175
v 0.234440 -0.275448 -0.201721
v 0.262488 -0.275448 -0.171053
v 0.279790 -0.275448 -0.137507
v 0.285637 -0.275448 -0.102532
v 0.267374 -0.310035 -0.101412
v 0.261901 -0.310035 -0.069352
v 0.245705 -0.310035 -0.038583
v 0.219451 -0.310035 -0.010338
v 0.184212 -0.310035 0.014239
v 0.141431 -0.310035 0.034008
v 0.092860 -0.310035 0.047465
v 0.040488 -0.310035 0.051424
v -0.013542 -0.310035 0.047527
v -0.067018 -0.310035 0.050980
v -0.117750 -0.310035 0.041657
v -0.163661 -0.310035 0.024802
v -0.202872 -0.310035 0.002478
v -0.233777 -0.310035 -0.024072
v -0.255112 -0.310035 -0.053727
v -0.266002 -0.310035 -0.085301
v -0.266002 -0.310035 -0.117521
v -0.255112 -0.310035 -0.149062
v -0.233777 -0.310035 -0.178601
v -0.202872 -0.310035 -0.204892
v -0.163661 -0.310035 -0.226888
v -0.117750 -0.310035 -0.244027
v -0.067018 -0.310035 -0.257000
v -0.013542 -0.310035 -0.270168
v 0.040488 -0.310035 -0.263022
v 0.092860 -0.310035 -0.250896
v 0.141431 -0.310035 -0.236066
v 0.184212 -0.310035 -0.216478
v 0.219451 -0.310035 -0.192225
v 0.245705 -0.310035 -0.164162
v 0.261901 -0.310035 -0.133459
v 0.267374 -0.310035 -0.101412
v 0.244835 -0.341441 -0.100638
v 0.239823 -0.341441 -0.071805
v 0.224993 -0.341441 -0.044118
v 0.200952 -0.341441 -0.018706
v 0.168683 -0.341441 0.003354
v 0.129509 -0.341441 0.020954
v 0.085033 -0.341441 0.032626
v 0.037075 -0.341441 0.035816
v -0.012401 -0.341441 0.033796
v -0.061369 -0.341441 0.035495
v -0.107824 -0.341441 0.027655
v -0.149865 -0.341441 0.012788
v -0.185771 -0.341441 -0.007191
v -0.214071 -0.341441 -0.031060
v -0.233607 -0.341441 -0.057747
v -0.243579 -0.341441 -0.086151
v -0.243579 -0.341441 -0.115116
v -0.233607 -0.341441 -0.143451
v -0.214071 -0.341441 -0.169986
v -0.185771 -0.341441 -0.193636
v -0.149865 -0.341441 -0.213529
v -0.107824 -0.341441 -0.229259
v -0.061369 -0.341441 -0.241496
v -0.012401 -0.341441 -0.251947
v 0.037075 -0.341441 -0.247000
v 0.085033 -0.341441 -0.235703
v 0.129509 -0.341441 -0.221908
v 0.168683 -0.341441 -0.204094
v 0.200952 -0.341441 -0.182233
v 0.224993 -0.341441 -0.157014
v 0.239823 -0.341441 -0.129436
v 0.244835 -0.341441 -0.100638
v 0.218268 -0.369344 -0.100121
v 0.213800 -0.369344 -0.074828
v 0.200579 -0.369344 -0.050544
v 0.179146 -0.369344 -0.028281
v 0.150379 -0.369344 -0.009029
v 0.115456 -0.369344 0.006175
v 0.075806 -0.369344 0.016048
v 0.033052 -0.369344 0.019120
v -0.011055 -0.369344 0.018575
v -0.054709 -0.369344 0.018486
v -0.096124 -0.369344 0.011875
v -0.133603 -0.369344 -0.000850
v -0.165613 -0.369344 -0.018217
v -0.190842 -0.369344 -0.039098
v -0.208258 -0.369344 -0.062496
v -0.217148 -0.369344 -0.087413
v -0.217148 -0.369344 -0.112821
v -0.208258 -0.369344 -0.137677
v -0.190842 -0.369344 -0.160969
v -0.165613 -0.369344 -0.181783
v -0.133603 -0.369344 -0.199406
v -0.096124 -0.369344 -0.213539
v -0.054709 -0.369344 -0.224556
v -0.011055 -0.369344 -0.232152
v 0.033052 -0.369344 -0.229037
v 0.075806 -0.369344 -0.219387
v 0.115456 -0.369344 -0.206904
v 0.150379 -0.369344 -0.191025
v 0.179146 -0.369344 -0.171737
v 0.200579 -0.369344 -0.149579
v 0.213800 -0.369344 -0.125382
v 0.218268 -0.369344 -0.100121
v 0.188023 -0.393456 -0.099819
v 0.184174 -0.393456 -0.078337
v 0.172785 -0.393456 -0.057735
v 0.154322 -0.393456 -0.038894
v 0.129541 -0.393456 -0.022690
v 0.099457 -0.393456 -0.010028
v 0.065301 -0.393456 -0.001878
v 0.028472 -0.393456 0.001197
v -0.009523 -0.393456 0.001361
v -0.047128 -0.393456 0.000263
v -0.082804 -0.393456 -0.005329
v -0.115090 -0.393456 -0.015856
v -0.142664 -0.393456 -0.030407
v -0.164397 -0.393456 -0.048040
v -0.179400 -0.393456 -0.067871
v -0.187058 -0.393456 -0.089024
v -0.187058 -0.393456 -0.110611
v -0.179400 -0.393456 -0.131748
v -0.164397 -0.393456 -0.151590
v -0.142664 -0.393456 -0.169387
v -0.115090 -0.393456 -0.184573
v -0.082804 -0.393456 -0.196873
v -0.047128 -0.393456 -0.206267
v -0.009523 -0.393456 -0.211702
v 0.028472 -0.393456 -0.209681
v 0.065301 -0.393456 -0.201941
v 0.099457 -0.393456 -0.191087
v 0.129541 -0.393456 -0.177332
v 0.154322 -0.393456 -0.160785
v 0.172785 -0.393456 -0.141881
v 0.184174 -0.393456 -0.121290
v 0.188023 -0.393456 -0.099819
v 0.154546 -0.413531 -0.099754
v 0.151383 -0.413531 -0.082314
v 0.142022 -0.413531 -0.065628
v 0.126846 -0.413531 -0.050431
v 0.106477 -0.413531 -0.037445
v 0.081749 -0.413531 -0.027384
v 0.053675 -0.413531 -0.020855
v 0.023403 -0.413531 -0.017935
v -0.007828 -0.413531 -0.017504
v -0.038737 -0.413531 -0.018984
v -0.068061 -0.413531 -0.023651
v -0.094599 -0.413531 -0.032006
v -0.117263 -0.413531 -0.043616
v -0.135127 -0.413531 -0.057798
v -0.147459 -0.413531 -0.073831
v -0.153753 -0.413531 -0.090985
v -0.153753 -0.413531 -0.108529
v -0.147459 -0.413531 -0.125743
v -0.135127 -0.413531 -0.141953
v -0.117263 -0.413531 -0.156567
v -0.094599 -0.413531 -0.169127
v -0.068061 -0.413531 -0.179327
v -0.038737 -0.413531 -0.186843
v -0.007828 -0.413531 -0.190674
v 0.023403 -0.413531 -0.189328
v 0.053675 -0.413531 -0.183456
v 0.081749 -0.413531 -0.174537
v 0.106477 -0.413531 -0.163126
v 0.126846 -0.413531 -0.149492
v 0.142022 -0.413531 -0.134013
v 0.151383 -0.413531 -0.117221
v 0.154546 -0.413531 -0.099754
v 0.118372 -0.429363 -0.100026
v 0.115949 -0.429363 -0.086811
v 0.108779 -0.429363 -0.074222
v 0.097156 -0.429363 -0.062814
v 0.081555 -0.429363 -0.053125
v 0.062615 -0.429363 -0.045630
v 0.041111 -0.429363 -0.040638
v 0.017925 -0.429363 -0.038113
v -0.005995 -0.429363 -0.037649
v -0.029670 -0.429363 -0.039088
v -0.052130 -0.429363 -0.042813
v -0.072456 -0.429363 -0.049078
v -0.089816 -0.429363 -0.057723
v -0.103498 -0.429363 -0.068336
v -0.112944 -0.429363 -0.080403
v -0.117765 -0.429363 -0.093375
v -0.117765 -0.429363 -0.106694
v -0.112944 -0.429363 -0.119814
v -0.103498 -0.429363 -0.132224
v -0.089816 -0.429363 -0.143474
v -0.072456 -0.429363 -0.153179
v -0.052130 -0.429363 -0.161003
v -0.029670 -0.429363 -0.166528
v -0.005995 -0.429363 -0.169121
v 0.017925 -0.429363 -0.168237
v 0.041111 -0.429363 -0.164087
v 0.062615 -0.429363 -0.157348
v 0.081555 -0.429363 -0.148541
v 0.097156 -0.429363 -0.138020
v 0.108779 -0.429363 -0.126138
v 0.115949 -0.429363 -0.113312
v 0.118372 -0.429363 -0.100026
v 0.080107 -0.440788 -0.100783
v 0.078468 -0.440788 -0.091919
v 0.073615 -0.440788 -0.083517
v 0.065749 -0.440788 -0.075936
v 0.055191 -0.440788 -0.069502
v 0.042374 -0.440788 -0.064475
v 0.027822 -0.440788 -0.061005
v 0.012130 -0.440788 -0.059114
v -0.004057 -0.440788 -0.058742
v -0.020079 -0.440788 -0.059866
v -0.035279 -0.440788 -0.062541
v -0.049034 -0.440788 -0.066800
v -0.060782 -0.440788 -0.072558
v -0.070042 -0.440788 -0.079602
v -0.076434 -0.440788 -0.087637
v -0.079696 -0.440788 -0.096316
v -0.079696 -0.440788 -0.105272
v -0.076434 -0.440788 -0.114139
v -0.070042 -0.440788 -0.122565
v -0.060782 -0.440788 -0.130221
v -0.049034 -0.440788 -0.136805
v -0.035279 -0.440788 -0.142020
v -0.020079 -0.440788 -0.145565
v -0.004057 -0.440788 -0.147154
v 0.012130 -0.440788 -0.146619
v 0.027822 -0.440788 -0.144021
v 0.042374 -0.440788 -0.139602
v 0.055191 -0.440788 -0.133666
v 0.065749 -0.440788 -0.126509
v 0.073615 -0.440788 -0.118428
v 0.078468 -0.440788 -0.109739
v 0.080107 -0.440788 -0.100783
v 0.040415 -0.447691 -0.101948
v 0.039588 -0.447691 -0.097496
v 0.037140 -0.447691 -0.093276
v 0.033172 -0.447691 -0.089459
v 0.027845 -0.447691 -0.086190
v 0.021378 -0.447691 -0.083589
v 0.014036 -0.447691 -0.081742
v 0.006120 -0.447691 -0.080701
v -0.002047 -0.447691 -0.080491
v -0.010130 -0.447691 -0.081118
v -0.017799 -0.447691 -0.082567
v -0.024739 -0.447691 -0.084800
v -0.030666 -0.447691 -0.087747
v -0.035337 -0.447691 -0.091307
v -0.038562 -0.447691 -0.095346
v -0.040208 -0.447691 -0.099704
v -0.040208 -0.447691 -0.104205
v -0.038562 -0.447691 -0.108666
v -0.035337 -0.447691 -0.112900
v -0.030666 -0.447691 -0.116729
v -0.024739 -0.447691 -0.119984
v -0.017799 -0.447691 -0.122513
v -0.010130 -0.447691 -0.124191
v -0.002047 -0.447691 -0.124927
v 0.006120 -0.447691 -0.124680
v 0.014036 -0.447691 -0.123465
v 0.021378 -0.447691 -0.121348
v 0.027845 -0.447691 -0.118438
v 0.033172 -0.447691 -0.114876
v 0.037140 -0.447691 -0.110823
v 0.039588 -0.447691 -0.106452
v 0.040415 -0.447691 -0.101948
v 0.000000 -0.450000 -0.102633
v 0.000000 -0.450000 -0.102633
v 0.000000 -0.450000 -0.102633
v 0.000000 -0.450000 -0.102633
v 0.000000 -0.450000 -0.102633
v 0.000000 -0.450000 -0.102633
v 0.000000 -0.450000 -0.102633
v 0.000000 -0.450000 -0.102633
v -0.000000 -0.450000 -0.102633
v -0.000000 -0.450000 -0.102633
v -0.000000 -0.450000 -0.102633
v -0.000000 -0.450000 -0.102633
v -0.000000 -0.450000 -0.102633
v -0.000000 -0.450000 -0.102633
v -0.000000 -0.450000 -0.102633
v -0.000000 -0.450000 -0.102633
v -0.000000 -0.450000 -0.102633
v -0.000000 -0.450000 -0.102633
v -0.000000 -0.450000 -0.102633
v -0.000000 -0.450000 -0.102633
v -0.000000 -0.450000 -0.102633
v -0.000000 -0.450000 -0.102633
v -0.000000 -0.450000 -0.102633
v -0.000000 -0.450000 -0.102633
v 0.000000 -0.450000 -0.102633
v 0.000000 -0.450000 -0.102633
v 0.000000 -0.450000 -0.102633
v 0.000000 -0.450000 -0.102633
v 0.000000 -0.450000 -0.102633
v 0.000000 -0.450000 -0.102633
v 0.000000 -0.450000 -0.102633
v 0.000000 -0.450000 -0.102633
vt 0.0000 1.0000
vt 0.0323 1.0000
vt 0.0645 1.0000
vt 0.0968 1.0000
vt 0.1290 1.0000
vt 0.1613 1.0000
vt 0.1935 1.0000
vt 0.2258 1.0000
vt 0.2581 1.0000
vt 0.2903 1.0000
vt 0.3226 1.0000
vt 0.3548 1.0000
vt 0.3871 1.0000
vt 0.4194 1.0000
vt 0.4516 1.0000
vt 0.4839 1.0000
vt 0.5161 1.0000
vt 0.5484 1.0000
vt 0.5806 1.0000
vt 0.6129 1.0000
vt 0.6452 1.0000
vt 0.6774 1.0000
vt 0.7097 1.0000
vt 0.7419 1.0000
vt 0.7742 1.0000
vt 0.8065 1.0000
vt 0.8387 1.0000
vt 0.8710 1.0000
vt 0.9032 1.0000
vt 0.9355 1.0000
vt 0.9677 1.0000
vt 1.0000 1.0000
vt 0.0000 0.9677
vt 0.0323 0.9677
vt 0.0645 0.9677
vt 0.0968 0.9677
vt 0.1290 0.9677
vt 0.1613 0.9677
vt 0.1935 0.9677
vt 0.2258 0.9677
vt 0.2581 0.9677
vt 0.2903 0.9677
vt 0.3226 0.9677
vt 0.3548 0.9677
vt 0.3871 0.9677
vt 0.4194 0.9677
vt 0.4516 0.9677
vt 0.4839 0.9677
vt 0.5161 0.9677
vt 0.5484 0.9677
vt 0.5806 0.9677
vt 0.6129 0.9677
vt 0.6452 0.9677
vt 0.6774 0.9677
vt 0.7097 0.9677
vt 0.7419 0.9677
vt 0.7742 0.9677
vt 0.8065 0.9677
vt 0.8387 0.9677
vt 0.8710 0.9677
vt 0.9032 0.9677
vt 0.9355 0.9677
vt 0.9677 0.9677
vt 1.0000 0.9677
vt 0.0000 0.9355
vt 0.0323 0.9355
vt 0.0645 0.9355
vt 0.0968 0.9355
vt 0.1290 0.9355
vt 0.1613 0.9355
vt 0.1935 0.9355
vt 0.2258 0.9355
vt 0.2581 0.9355
vt 0.2903 0.9355
vt 0.3226 0.9355
vt 0.3548 0.9355
vt 0.3871 0.9355
vt 0.4194 0.9355
vt 0.4516 0.9355
vt 0.4839 0.9355
vt 0.5161 0.9355
vt 0.5484 0.9355
vt 0.5806 0.9355
vt 0.6129 0.9355
vt 0.6452 0.9355
vt 0.6774 0.9355
vt 0.7097 0.9355
vt 0.7419 0.9355
vt 0.7742 0.9355
vt 0.8065 0.9355
vt 0.8387 0.9355
vt 0.8710 0.9355
vt 0.9032 0.9355
vt 0.9355 0.9355
vt 0.9677 0.9355
vt 1.0000 0.9355
vt 0.0000 0.9032
vt 0.0323 0.9032
vt 0.0645 0.9032
vt 0.0968 0.9032
vt 0.1290 0.9032
vt 0.1613 0.9032
vt 0.1935 0.9032
vt 0.2258 0.9032
vt 0.2581 0.9032
vt 0.2903 0.9032
vt 0.3226 0.9032
vt 0.3548 0.9032
vt 0.3871 0.9032
vt 0.4194 0.9032
vt 0.4516 0.9032
vt 0.4839 0.9032
vt 0.5161 0.9032
vt 0.5484 0.9032
vt 0.5806 0.9032
vt 0.6129 0.9032
vt 0.6452 0.9032
vt 0.6774 0.9032
vt 0.7097 0.9032
vt 0.7419 0.9032
vt 0.7742 0.9032
vt 0.8065 0.9032
vt 0.8387 0.9032
vt 0.8710 0.9032
vt 0.9032 0.9032
vt 0.9355 0.9032
vt 0.9677 0.9032
vt 1.0000 0.9032
vt 0.0000 0.8710
vt 0.0323 0.8710
vt 0.0645 0.8710
vt 0.0968 0.8710
vt 0.1290 0.8710
vt 0.1613 0.8710
vt 0.1935 0.8710
vt 0.2258 0.8710
vt 0.2581 0.8710
vt 0.2903 0.8710
vt 0.3226 0.8710
vt 0.3548 0.8710
vt 0.3871 0.8710
vt 0.4194 0.8710
vt 0.4516 0.8710
vt 0.4839 0.8710
vt 0.5161 0.8710
vt 0.5484 0.8710
vt 0.5806 0.8710
vt 0.6129 0.8710
vt 0.6452 0.8710
vt 0.6774 0.8710
vt 0.7097 0.8710
vt 0.7419 0.8710
vt 0.7742 0.8710
vt 0.8065 0.8710
vt 0.8387 0.8710
vt 0.8710 0.8710
vt 0.9032 0.8710
vt 0.9355 0.8710
vt 0.9677 0.8710
vt 1.0000 0.8710
vt 0.0000 0.8387
vt 0.0323 0.8387
vt 0.0645 0.8387
vt 0.0968 0.8387
vt 0.1290 0.8387
vt 0.1613 0.8387
vt 0.1935 0.8387
vt 0.2258 0.8387
vt 0.2581 0.8387
vt 0.2903 0.8387
vt 0.3226 0.8387
vt 0.3548 0.8387
vt 0.3871 0.8387
vt 0.4194 0.8387
vt 0.4516 0.8387
vt 0.4839 0.8387
vt 0.5161 0.8387
vt 0.5484 0.8387
vt 0.5806 0.8387
vt 0.6129 0.8387
vt 0.6452 0.8387
vt 0.6774 0.8387
vt 0.7097 0.8387
vt 0.7419 0.8387
vt 0.7742 0.8387
vt 0.8065 0.8387
vt 0.8387 0.8387
vt 0.8710 0.8387
vt 0.9032 0.8387
vt 0.9355 0.8387
vt 0.9677 0.8387
vt 1.0000 0.8387
vt 0.0000 0.8065
vt 0.0323 0.8065
vt 0.0645 0.8065
vt 0.0968 0.8065
vt 0.1290 0.8065
vt 0.1613 0.8065
vt 0.1935 0.8065
vt 0.2258 0.8065
vt 0.2581 0.8065
vt 0.2903 0.8065
vt 0.3226 0.8065
vt 0.3548 0.8065
vt 0.3871 0.8065
vt 0.4194 0.8065
vt 0.4516 0.8065
vt 0.4839 0.8065
vt 0.5161 0.8065
vt 0.5484 0.8065
vt 0.5806 0.8065
vt 0.6129 0.8065
vt 0.6452 0.8065
vt 0.6774 0.8065
vt 0.7097 0.8065
vt 0.7419 0.8065
vt 0.7742 0.8065
vt 0.8065 0.8065
vt 0.8387 0.8065
vt 0.8710 0.8065
vt 0.9032 0.8065
vt 0.9355 0.8065
vt 0.9677 0.8065
vt 1.0000 0.8065
vt 0.0000 0.7742
vt 0.0323 0.7742
vt 0.0645 0.7742
vt 0.0968 0.7742
vt 0.1290 0.7742
vt 0.1613 0.7742
vt 0.1935 0.7742
vt 0.2258 0.7742
vt 0.2581 0.7742
vt 0.2903 0.7742
vt 0.3226 0.7742
vt 0.3548 0.7742
vt 0.3871 0.7742
vt 0.4194 0.7742
vt 0.4516 0.7742
vt 0.4839 0.7742
vt 0.5161 0.7742
vt 0.5484 0.7742
vt 0.5806 0.7742
vt 0.6129 0.7742
vt 0.6452 0.7742
vt 0.6774 0.7742
vt 0.7097 0.7742
vt 0.7419 0.7742
vt 0.7742 0.7742
vt 0.8065 0.7742
vt 0.8387 0.7742
vt 0.8710 0.7742
vt 0.9032 0.7742
vt 0.9355 0.7742
vt 0.9677 0.7742
vt 1.0000 0.7742
vt 0.0000 0.7419
vt 0.0323 0.7419
vt 0.0645 0.7419
vt 0.0968 0.7419
vt 0.1290 0.7419
vt 0.1613 0.7419
vt 0.1935 0.7419
vt 0.2258 0.7419
vt 0.2581 0.7419
vt 0.2903 0.7419
vt 0.3226 0.7419
vt 0.3548 0.7419
vt 0.3871 0.7419
vt 0.4194 0.7419
vt 0.4516 0.7419
vt 0.4839 0.7419
vt 0.5161 0.7419
vt 0.5484 0.7419
vt 0.5806 0.7419
vt 0.6129 0.7419
vt 0.6452 0.7419
vt 0.6774 0.7419
vt 0.7097 0.7419
vt 0.7419 0.7419
vt 0.7742 0.7419
vt 0.8065 0.7419
vt 0.8387 0.7419
vt 0.8710 0.7419
vt 0.9032 0.7419
vt 0.9355 0.7419
vt 0.9677 0.7419
vt 1.0000 0.7419
vt 0.0000 0.7097
vt 0.0323 0.7097
vt 0.0645 0.7097
vt 0.0968 0.7097
vt 0.1290 0.7097
vt 0.1613 0.7097
vt 0.1935 0.7097
vt 0.2258 0.7097
vt 0.2581 0.7097
vt 0.2903 0.7097
vt 0.3226 0.7097
vt 0.3548 0.7097
vt 0.3871 0.7097
vt 0.4194 0.7097
vt 0.4516 0.7097
vt 0.4839 0.7097
vt 0.5161 0.7097
vt 0.5484 0.7097
vt 0.5806 0.7097
vt 0.6129 0.7097
vt 0.6452 0.7097
vt 0.6774 0.7097
vt 0.7097 0.7097
vt 0.7419 0.7097
vt 0.7742 0.7097
vt 0.8065 0.7097
vt 0.8387 0.7097
vt 0.8710 0.7097
vt 0.9032 0.7097
vt 0.9355 0.7097
vt 0.9677 0.7097
vt 1.0000 0.7097
vt 0.0000 0.6774
vt 0.0323 0.6774
vt 0.0645 0.6774
vt 0.0968 0.6774
vt 0.1290 0.6774
vt 0.1613 0.6774
vt 0.1935 0.6774
vt 0.2258 0.6774
vt 0.2581 0.6774
vt 0.2903 0.6774
vt 0.3226 0.6774
vt 0.3548 0.6774
vt 0.3871 0.6774
vt 0.4194 0.6774
vt 0.4516 0.6774
vt 0.4839 0.6774
vt 0.5161 0.6774
vt 0.5484 0.6774
vt 0.5806 0.6774
vt 0.6129 0.6774
vt 0.6452 0.6774
vt 0.6774 0.6774
vt 0.7097 0.6774
vt 0.7419 0.6774
vt 0.7742 0.6774
vt 0.8065 0.6774
vt 0.8387 0.6774
vt 0.8710 0.6774
vt 0.9032 0.6774
vt 0.9355 0.6774
vt 0.9677 0.6774
vt 1.0000 0.6774
vt 0.0000 0.6452
vt 0.0323 0.6452
vt 0.0645 0.6452
vt 0.0968 0.6452
vt 0.1290 0.6452
vt 0.1613 0.6452
vt 0.1935 0.6452
vt 0.2258 0.6452
vt 0.2581 0.6452
vt 0.2903 0.6452
vt 0.3226 0.6452
vt 0.3548 0.6452
vt 0.3871 0.6452
vt 0.4194 0.6452
vt 0.4516 0.6452
vt 0.4839 0.6452
vt 0.5161 0.6452
vt 0.5484 0.6452
vt 0.5806 0.6452
vt 0.6129 0.6452
vt 0.6452 0.6452
vt 0.6774 0.6452
vt 0.7097 0.6452
vt 0.7419 0.6452
vt 0.7742 0.6452
vt 0.8065 0.6452
vt 0.8387 0.6452
vt 0.8710 0.6452
vt 0.9032 0.6452
vt 0.9355 0.6452
vt 0.9677 0.6452
vt 1.0000 0.6452
vt 0.0000 0.6129
vt 0.0323 0.6129
vt 0.0645 0.6129
vt 0.0968 0.6129
vt 0.1290 0.6129
vt 0.1613 0.6129
vt 0.1935 0.6129
vt 0.2258 0.6129
vt 0.2581 0.6129
vt 0.2903 0.6129
vt 0.3226 0.6129
vt 0.3548 0.6129
vt 0.3871 0.6129
vt 0.4194 0.6129
vt 0.4516 0.6129
vt 0.4839 0.6129
vt 0.5161 0.6129
vt 0.5484 0.6129
vt 0.5806 0.6129
vt 0.6129 0.6129
vt 0.6452 0.6129
vt 0.6774 0.6129
vt 0.7097 0.6129
vt 0.7419 0.6129
vt 0.7742 0.6129
vt 0.8065 0.6129
vt 0.8387 0.6129
vt 0.8710 0.6129
vt 0.9032 0.6129
vt 0.9355 0.6129
vt 0.9677 0.6129
vt 1.0000 0.6129
vt 0.0000 0.5806
vt 0.0323 0.5806
vt 0.0645 0.5806
vt 0.0968 0.5806
vt 0.1290 0.5806
vt 0.1613 0.5806
vt 0.1935 0.5806
vt 0.2258 0.5806
vt 0.2581 0.5806
vt 0.2903 0.5806
vt 0.3226 0.5806
vt 0.3548 0.5806
vt 0.3871 0.5806
vt 0.4194 0.5806
vt 0.4516 0.5806
vt 0.4839 0.5806
vt 0.5161 0.5806
vt 0.5484 0.5806
vt 0.5806 0.5806
vt 0.6129 0.5806
vt 0.6452 0.5806
vt 0.6774 0.5806
vt 0.7097 0.5806
vt 0.7419 0.5806
vt 0.7742 0.5806
vt 0.8065 0.5806
vt 0.8387 0.5806
vt 0.8710 0.5806
vt 0.9032 0.5806
vt 0.9355 0.5806
vt 0.9677 0.5806
vt 1.0000 0.5806
vt 0.0000 0.5484
vt 0.0323 0.5484
vt 0.0645 0.5484
vt 0.0968 0.5484
vt 0.1290 0.5484
vt 0.1613 0.5484
vt 0.1935 0.5484
vt 0.2258 0.5484
vt 0.2581 0.5484
vt 0.2903 0.5484
vt 0.3226 0.5484
vt 0.3548 0.5484
vt 0.3871 0.5484
vt 0.4194 0.5484
vt 0.4516 0.5484
vt 0.4839 0.5484
vt 0.5161 0.5484
vt 0.5484 0.5484
vt 0.5806 0.5484
vt 0.6129 0.5484
vt 0.6452 0.5484
vt 0.6774 0.5484
vt 0.7097 0.5484
vt 0.7419 0.5484
vt 0.7742 0.5484
vt 0.8065 0.5484
vt 0.8387 0.5484
vt 0.8710 0.5484
vt 0.9032 0.5484
vt 0.9355 0.5484
vt 0.9677 0.5484
vt 1.0000 0.5484
vt 0.0000 0.5161
vt 0.0323 0.5161
vt 0.0645 0.5161
vt 0.0968 0.5161
vt 0.1290 0.5161
vt 0.1613 0.5161
vt 0.1935 0.5161
vt 0.2258 0.5161
vt 0.2581 0.5161
vt 0.2903 0.5161
vt 0.3226 0.5161
vt 0.3548 0.5161
vt 0.3871 0.5161
vt 0.4194 0.5161
vt 0.4516 0.5161
vt 0.4839 0.5161
vt 0.5161 0.5161
vt 0.5484 0.5161
vt 0.5806 0.5161
vt 0.6129 0.5161
vt 0.6452 0.5161
vt 0.6774 0.5161
vt 0.7097 0.5161
vt 0.7419 0.5161
vt 0.7742 0.5161
vt 0.8065 0.5161
vt 0.8387 0.5161
vt 0.8710 0.5161
vt 0.9032 0.5161
vt 0.9355 0.5161
vt 0.9677 0.5161
vt 1.0000 0.5161
vt 0.0000 0.4839
vt 0.0323 0.4839
vt 0.0645 0.4839
vt 0.0968 0.4839
vt 0.1290 0.4839
vt 0.1613 0.4839
vt 0.1935 0.4839
vt 0.2258 0.4839
vt 0.2581 0.4839
vt 0.2903 0.4839
vt 0.3226 0.4839
vt 0.3548 0.4839
vt 0.3871 0.4839
vt 0.4194 0.4839
vt 0.4516 0.4839
vt 0.4839 0.4839
vt 0.5161 0.4839
vt 0.5484 0.4839
vt 0.5806 0.4839
vt 0.6129 0.4839
vt 0.6452 0.4839
vt 0.6774 0.4839
vt 0.7097 0.4839
vt 0.7419 0.4839
vt 0.7742 0.4839
vt 0.8065 0.4839
vt 0.8387 0.4839
vt 0.8710 0.4839
vt 0.9032 0.4839
vt 0.9355 0.4839
vt 0.9677 0.4839
vt 1.0000 0.4839
vt 0.0000 0.4516
vt 0.0323 0.4516
vt 0.0645 0.4516
vt 0.0968 0.4516
vt 0.1290 0.4516
vt 0.1613 0.4516
vt 0.1935 0.4516
vt 0.2258 0.4516
vt 0.2581 0.4516
vt 0.2903 0.4516
vt 0.3226 0.4516
vt 0.3548 0.4516
vt 0.3871 0.4516
vt 0.4194 0.4516
vt 0.4516 0.4516
vt 0.4839 0.4516
vt 0.5161 0.4516
vt 0.5484 0.4516
vt 0.5806 0.4516
vt 0.6129 0.4516
vt 0.6452 0.4516
vt 0.6774 0.4516
vt 0.7097 0.4516
vt 0.7419 0.4516
vt 0.7742 0.4516
vt 0.8065 0.4516
vt 0.8387 0.4516
vt 0.8710 0.4516
vt 0.9032 0.4516
vt 0.9355 0.4516
vt 0.9677 0.4516
vt 1.0000 0.4516
vt 0.0000 0.4194
vt 0.0323 0.4194
vt 0.0645 0.4194
vt 0.0968 0.4194
vt 0.1290 0.4194
vt 0.1613 0.4194
vt 0.1935 0.4194
vt 0.2258 0.4194
vt 0.2581 0.4194
vt 0.2903 0.4194
vt 0.3226 0.4194
vt 0.3548 0.4194
vt 0.3871 0.4194
vt 0.4194 0.4194
vt 0.4516 0.4194
vt 0.4839 0.4194
vt 0.5161 0.4194
vt 0.5484 0.4194
vt 0.5806 0.4194
vt 0.6129 0.4194
vt 0.6452 0.4194
vt 0.6774 0.4194
vt 0.7097 0.4194
vt 0.7419 0.4194
vt 0.7742 0.4194
vt 0.8065 0.4194
vt 0.8387 0.4194
vt 0.8710 0.4194
vt 0.9032 0.4194
vt 0.9355 0.4194
vt 0.9677 0.4194
vt 1.0000 0.4194
vt 0.0000 0.3871
vt 0.0323 0.3871
vt 0.0645 0.3871
vt 0.0968 0.3871
vt 0.1290 0.3871
vt 0.1613 0.3871
vt 0.1935 0.3871
vt 0.2258 0.3871
vt 0.2581 0.3871
vt 0.2903 0.3871
vt 0.3226 0.3871
vt 0.3548 0.3871
vt 0.3871 0.3871
vt 0.4194 0.3871
vt 0.4516 0.3871
vt 0.4839 0.3871
vt 0.5161 0.3871
vt 0.5484 0.3871
vt 0.5806 0.3871
vt 0.6129 0.3871
vt 0.6452 0.3871
vt 0.6774 0.3871
vt 0.7097 0.3871
vt 0.7419 0.3871
vt 0.7742 0.3871
vt 0.8065 0.3871
vt 0.8387 0.3871
vt 0.8710 0.3871
vt 0.9032 0.3871
vt 0.9355 0.3871
vt 0.9677 0.3871
vt 1.0000 0.3871
vt 0.0000 0.3548
vt 0.0323 0.3548
vt 0.0645 0.3548
vt 0.0968 0.3548
vt 0.1290 0.3548
vt 0.1613 0.3548
vt 0.1935 0.3548
vt 0.2258 0.3548
vt 0.2581 0.3548
vt 0.2903 0.3548
vt 0.3226 0.3548
vt 0.3548 0.3548
vt 0.3871 0.3548
vt 0.4194 0.3548
vt 0.4516 0.3548
vt 0.4839 0.3548
vt 0.5161 0.3548
vt 0.5484 0.3548
vt 0.5806 0.3548
vt 0.6129 0.3548
vt 0.6452 0.3548
vt 0.6774 0.3548
vt 0.7097 0.3548
vt 0.7419 0.3548
vt 0.7742 0.3548
vt 0.8065 0.3548
vt 0.8387 0.3548
vt 0.8710 0.3548
vt 0.9032 0.3548
vt 0.9355 0.3548
vt 0.9677 0.3548
vt 1.0000 0.3548
vt 0.0000 0.3226
vt 0.0323 0.3226
vt 0.0645 0.3226
vt 0.0968 0.3226
vt 0.1290 0.3226
vt 0.1613 0.3226
vt 0.1935 0.3226
vt 0.2258 0.3226
vt 0.2581 0.3226
vt 0.2903 0.3226
vt 0.3226 0.3226
vt 0.3548 0.3226
vt 0.3871 0.3226
vt 0.4194 0.3226
vt 0.4516 0.3226
vt 0.4839 0.3226
vt 0.5161 0.3226
vt 0.5484 0.3226
vt 0.5806 0.3226
vt 0.6129 0.3226
vt 0.6452 0.3226
vt 0.6774 0.3226
vt 0.7097 0.3226
vt 0.7419 0.3226
vt 0.7742 0.3226
vt 0.8065 0.3226
vt 0.8387 0.3226
vt 0.8710 0.3226
vt 0.9032 0.3226
vt 0.9355 0.3226
vt 0.9677 0.3226
vt 1.0000 0.3226
vt 0.0000 0.2903
vt 0.0323 0.2903
vt 0.0645 0.2903
vt 0.0968 0.2903
vt 0.1290 0.2903
vt 0.1613 0.2903
vt 0.1935 0.2903
vt 0.2258 0.2903
vt 0.2581 0.2903
vt 0.2903 0.2903
vt 0.3226 0.2903
vt 0.3548 0.2903
vt 0.3871 0.2903
vt 0.4194 0.2903
vt 0.4516 0.2903
vt 0.4839 0.2903
vt 0.5161 0.2903
vt 0.5484 0.2903
vt 0.5806 0.2903
vt 0.6129 0.2903
vt 0.6452 0.2903
vt 0.6774 0.2903
vt 0.7097 0.2903
vt 0.7419 0.2903
vt 0.7742 0.2903
vt 0.8065 0.2903
vt 0.8387 0.2903
vt 0.8710 0.2903
vt 0.9032 0.2903
vt 0.9355 0.2903
vt 0.9677 0.2903
vt 1.0000 0.2903
vt 0.0000 0.2581
vt 0.0323 0.2581
vt 0.0645 0.2581
vt 0.0968 0.2581
vt 0.1290 0.2581
vt 0.1613 0.2581
vt 0.1935 0.2581
vt 0.2258 0.2581
vt 0.2581 0.2581
vt 0.2903 0.2581
vt 0.3226 0.2581
vt 0.3548 0.2581
vt 0.3871 0.2581
vt 0.4194 0.2581
vt 0.4516 0.2581
vt 0.4839 0.2581
vt 0.5161 0.2581
vt 0.5484 0.2581
vt 0.5806 0.2581
vt 0.6129 0.2581
vt 0.6452 0.2581
vt 0.6774 0.2581
vt 0.7097 0.2581
vt 0.7419 0.2581
vt 0.7742 0.2581
vt 0.8065 0.2581
vt 0.8387 0.2581
vt 0.8710 0.2581
vt 0.9032 0.2581
vt 0.9355 0.2581
vt 0.9677 0.2581
vt 1.0000 0.2581
vt 0.0000 0.2258
vt 0.0323 0.2258
vt 0.0645 0.2258
vt 0.0968 0.2258
vt 0.1290 0.2258
vt 0.1613 0.2258
vt 0.1935 0.2258
vt 0.2258 0.2258
vt 0.2581 0.2258
vt 0.2903 0.2258
vt 0.3226 0.2258
vt 0.3548 0.2258
vt 0.3871 0.2258
vt 0.4194 0.2258
vt 0.4516 0.2258
vt 0.4839 0.2258
vt 0.5161 0.2258
vt 0.5484 0.2258
vt 0.5806 0.2258
vt 0.6129 0.2258
vt 0.6452 0.2258
vt 0.6774 0.2258
vt 0.7097 0.2258
vt 0.7419 0.2258
vt 0.7742 0.2258
vt 0.8065 0.2258
vt 0.8387 0.2258
vt 0.8710 0.2258
vt 0.9032 0.2258
vt 0.9355 0.2258
vt 0.9677 0.2258
vt 1.0000 0.2258
vt 0.0000 0.1935
vt 0.0323 0.1935
vt 0.0645 0.1935
vt 0.0968 0.1935
vt 0.1290 0.1935
vt 0.1613 0.1935
vt 0.1935 0.1935
vt 0.2258 0.1935
vt 0.2581 0.1935
vt 0.2903 0.1935
vt 0.3226 0.1935
vt 0.3548 0.1935
vt 0.3871 0.1935
vt 0.4194 0.1935
vt 0.4516 0.1935
vt 0.4839 0.1935
vt 0.5161 0.1935
vt 0.5484 0.1935
vt 0.5806 0.1935
vt 0.6129 0.1935
vt 0.6452 0.1935
vt 0.6774 0.1935
vt 0.7097 0.1935
vt 0.7419 0.1935
vt 0.7742 0.1935
vt 0.8065 0.1935
vt 0.8387 0.1935
vt 0.8710 0.1935
vt 0.9032 0.1935
vt 0.9355 0.1935
vt 0.9677 0.1935
vt 1.0000 0.1935
vt 0.0000 0.1613
vt 0.0323 0.1613
vt 0.0645 0.1613
vt 0.0968 0.1613
vt 0.1290 0.1613
vt 0.1613 0.1613
vt 0.1935 0.1613
vt 0.2258 0.1613
vt 0.2581 0.1613
vt 0.2903 0.1613
vt 0.3226 0.1613
vt 0.3548 0.1613
vt 0.3871 0.1613
vt 0.4194 0.1613
vt 0.4516 0.1613
vt 0.4839 0.1613
vt 0.5161 0.1613
vt 0.5484 0.1613
vt 0.5806 0.1613
vt 0.6129 0.1613
vt 0.6452 0.1613
vt 0.6774 0.1613
vt 0.7097 0.1613
vt 0.7419 0.1613
vt 0.7742 0.1613
vt 0.8065 0.1613
vt 0.8387 0.1613
vt 0.8710 0.1613
vt 0.9032 0.1613
vt 0.9355 0.1613
vt 0.9677 0.1613
vt 1.0000 0.1613
vt 0.0000 0.1290
vt 0.0323 0.1290
vt 0.0645 0.1290
vt 0.0968 0.1290
vt 0.1290 0.1290
vt 0.1613 0.1290
vt 0.1935 0.1290
vt 0.2258 0.1290
vt 0.2581 0.1290
vt 0.2903 0.1290
vt 0.3226 0.1290
vt 0.3548 0.1290
vt 0.3871 0.1290
vt 0.4194 0.1290
vt 0.4516 0.1290
vt 0.4839 0.1290
vt 0.5161 0.1290
vt 0.5484 0.1290
vt 0.5806 0.1290
vt 0.6129 0.1290
vt 0.6452 0.1290
vt 0.6774 0.1290
vt 0.7097 0.1290
vt 0.7419 0.1290
vt 0.7742 0.1290
vt 0.8065 0.1290
vt 0.8387 0.1290
vt 0.8710 0.1290
vt 0.9032 0.1290
vt 0.9355 0.1290
vt 0.9677 0.1290
vt 1.0000 0.1290
vt 0.0000 0.0968
vt 0.0323 0.0968
vt 0.0645 0.0968
vt 0.0968 0.0968
vt 0.1290 0.0968
vt 0.1613 0.0968
vt 0.1935 0.0968
vt 0.2258 0.0968
vt 0.2581 0.0968
vt 0.2903 0.0968
vt 0.3226 0.0968
vt 0.3548 0.0968
vt 0.3871 0.0968
vt 0.4194 0.0968
vt 0.4516 0.0968
vt 0.4839 0.0968
vt 0.5161 0.0968
vt 0.5484 0.0968
vt 0.5806 0.0968
vt 0.6129 0.0968
vt 0.6452 0.0968
vt 0.6774 0.0968
vt 0.7097 0.0968
vt 0.7419 0.0968
vt 0.7742 0.0968
vt 0.8065 0.0968
vt 0.8387 0.0968
vt 0.8710 0.0968
vt 0.9032 0.0968
vt 0.9355 0.0968
vt 0.9677 0.0968
vt 1.0000 0.0968
vt 0.0000 0.0645
vt 0.0323 0.0645
vt 0.0645 0.0645
vt 0.0968 0.0645
vt 0.1290 0.0645
vt 0.1613 0.0645
vt 0.1935 0.0645
vt 0.2258 0.0645
vt 0.2581 0.0645
vt 0.2903 0.0645
vt 0.3226 0.0645
vt 0.3548 0.0645
vt 0.3871 0.0645
vt 0.4194 0.0645
vt 0.4516 0.0645
vt 0.4839 0.0645
vt 0.5161 0.0645
vt 0.5484 0.0645
vt 0.5806 0.0645
vt 0.6129 0.0645
vt 0.6452 0.0645
vt 0.6774 0.0645
vt 0.7097 0.0645
vt 0.7419 0.0645
vt 0.7742 0.0645
vt 0.8065 0.0645
vt 0.8387 0.0645
vt 0.8710 0.0645
vt 0.9032 0.0645
vt 0.9355 0.0645
vt 0.9677 0.0645
vt 1.0000 0.0645
vt 0.0000 0.0323
vt 0.0323 0.0323
vt 0.0645 0.0323
vt 0.0968 0.0323
vt 0.1290 0.0323
vt 0.1613 0.0323
vt 0.1935 0.0323
vt 0.2258 0.0323
vt 0.2581 0.0323
vt 0.2903 0.0323
vt 0.3226 0.0323
vt 0.3548 0.0323
vt 0.3871 0.0323
vt 0.4194 0.0323
vt 0.4516 0.0323
vt 0.4839 0.0323
vt 0.5161 0.0323
vt 0.5484 0.0323
vt 0.5806 0.0323
vt 0.6129 0.0323
vt 0.6452 0.0323
vt 0.6774 0.0323
vt 0.7097 0.0323
vt 0.7419 0.0323
vt 0.7742 0.0323
vt 0.8065 0.0323
vt 0.8387 0.0323
vt 0.8710 0.0323
vt 0.9032 0.0323
vt 0.9355 0.0323
vt 0.9677 0.0323
vt 1.0000 0.0323
vt 0.0000 0.0000
vt 0.0323 0.0000
vt 0.0645 0.0000
vt 0.0968 0.0000
vt 0.1290 0.0000
vt 0.1613 0.0000
vt 0.1935 0.0000
vt 0.2258 0.0000
vt 0.2581 0.0000
vt 0.2903 0.0000
vt 0.3226 0.0000
vt 0.3548 0.0000
vt 0.3871 0.0000
vt 0.4194 0.0000
vt 0.4516 0.0000
vt 0.4839 0.0000
vt 0.5161 0.0000
vt 0.5484 0.0000
vt 0.5806 0.0000
vt 0.6129 0.0000
vt 0.6452 0.0000
vt 0.6774 0.0000
vt 0.7097 0.0000
vt 0.7419 0.0000
vt 0.7742 0.0000
vt 0.8065 0.0000
vt 0.8387 0.0000
vt 0.8710 0.0000
vt 0.9032 0.0000
vt 0.9355 0.0000
vt 0.9677 0.0000
vt 1.0000 0.0000
f 1/1 2/2 33/33
f 2/2 34/34 33/33
f 2/2 3/3 34/34
f 3/3 35/35 34/34
f 3/3 4/4 35/35
f 4/4 36/36 35/35
f 4/4 5/5 36/36
f 5/5 37/37 36/36
f 5/5 6/6 37/37
f 6/6 38/38 37/37
f 6/6 7/7 38/38
f 7/7 39/39 38/38
f 7/7 8/8 39/39
f 8/8 40/40 39/39
f 8/8 9/9 40/40
f 9/9 41/41 40/40
f 9/9 10/10 41/41
f 10/10 42/42 41/41
f 10/10 11/11 42/42
f 11/11 43/43 42/42
f 11/11 12/12 43/43
f 12/12 44/44 43/43
f 12/12 13/13 44/44
f 13/13 45/45 44/44
f 13/13 14/14 45/45
f 14/14 46/46 45/45
f 14/14 15/15 46/46
f 15/15 47/47 46/46
f 15/15 16/16 47/47
f 16/16 48/48 47/47
f 16/16 17/17 48/48
f 17/17 49/49 48/48
f 17/17 18/18 49/49
f 18/18 50/50 49/49
f 18/18 19/19 50/50
f 19/19 51/51 50/50
f 19/19 20/20 51/51
f 20/20 52/52 51/51
f 20/20 21/21 52/52
f 21/21 53/53 52/52
f 21/21 22/22 53/53
f 22/22 54/54 53/53
f 22/22 23/23 54/54
f 23/23 55/55 54/54
f 23/23 24/24 55/55
f 24/24 56/56 55/55
f 24/24 25/25 56/56
f 25/25 57/57 56/56
f 25/25 26/26 57/57
f 26/26 58/58 57/57
f 26/26 27/27 58/58
f 27/27 59/59 58/58
f 27/27 28/28 59/59
f 28/28 60/60 59/59
f 28/28 29/29 60/60
f 29/29 61/61 60/60
f 29/29 30/30 61/61
f 30/30 62/62 61/61
f 30/30 31/31 62/62
f 31/31 63/63 62/62
f 31/31 32/32 63/63
f 32/32 64/64 63/63
f 33/33 34/34 65/65
f 34/34 66/66 65/65
f 34/34 35/35 66/66
f 35/35 67/67 66/66
f 35/35 36/36 67/67
f 36/36 68/68 67/67
f 36/36 37/37 68/68
f 37/37 69/69 68/68
f 37/37 38/38 69/69
f 38/38 70/70 69/69
f 38/38 39/39 70/70
f 39/39 71/71 70/70
f 39/39 40/40 71/71
f 40/40 72/72 71/71
f 40/40 41/41 72/72
f 41/41 73/73 72/72
f 41/41 42/42 73/73
f 42/42 74/74 73/73
f 42/42 43/43 74/74
f 43/43 75/75 74/74
f 43/43 44/44 75/75
f 44/44 76/76 75/75
f 44/44 45/45 76/76
f 45/45 77/77 76/76
f 45/45 46/46 77/77
f 46/46 78/78 77/77
f 46/46 47/47 78/78
f 47/47 79/79 78/78
f 47/47 48/48 79/79
f 48/48 80/80 79/79
f 48/48 49/49 80/80
f 49/49 81/81 80/80
f 49/49 50/50 81/81
f 50/50 82/82 81/81
f 50/50 51/51 82/82
f 51/51 83/83 82/82
f 51/51 52/52 83/83
f 52/52 84/84 83/83
f 52/52 53/53 84/84
f 53/53 85/85 84/84
f 53/53 54/54 85/85
f 54/54 86/86 85/85
f 54/54 55/55 86/86
f 55/55 87/87 86/86
f 55/55 56/56 87/87
f 56/56 88/88 87/87
f 56/56 57/57 88/88
f 57/57 89/89 88/88
f 57/57 58/58 89/89
f 58/58 90/90 89/89
f 58/58 59/59 90/90
f 59/59 91/91 90/90
f 59/59 60/60 91/91
f 60/60 92/92 91/91
f 60/60 61/61 92/92
f 61/61 93/93 92/92
f 61/61 62/62 93/93
f 62/62 94/94 93/93
f 62/62 63/63 94/94
f 63/63 95/95 94/94
f 63/63 64/64 95/95
f 64/64 96/96 95/95
f 65/65 66/66 97/97
f 66/66 98/98 97/97
f 66/66 67/67 98/98
f 67/67 99/99 98/98
f 67/67 68/68 99/99
f 68/68 100/100 99/99
f 68/68 69/69 100/100
f 69/69 101/101 100/100
f 69/69 70/70 101/101
f 70/70 102/102 101/101
f 70/70 71/71 102/102
f 71/71 103/103 102/102
f 71/71 72/72 103/103
f 72/72 104/104 103/103
f 72/72 73/73 104/104
f 73/73 105/105 104/104
f 73/73 74/74 105/105
f 74/74 106/106 105/105
f 74/74 75/75 106/106
f 75/75 107/107 106/106
f 75/75 76/76 107/107
f 76/76 108/108 107/107
f 76/76 77/77 108/108
f 77/77 109/109 108/108
f 77/77 78/78 109/109
f 78/78 110/110 109/109
f 78/78 79/79 110/110
f 79/79 111/111 110/110
f 79/79 80/80 111/111
f 80/80 112/112 111/111
f 80/80 81/81 112/112
f 81/81 113/113 112/112
f 81/81 82/82 113/113
f 82/82 114/114 113/113
f 82/82 83/83 114/114
f 83/83 115/115 114/114
f 83/83 84/84 115/115
f 84/84 116/116 115/115
f 84/84 85/85 116/116
f 85/85 117/117 116/116
f 85/85 86/86 117/117
f 86/86 118/118 117/117
f 86/86 87/87 118/118
f 87/87 119/119 118/118
f 87/87 88/88 119/119
f 88/88 120/120 119/119
f 88/88 89/89 120/120
f 89/89 121/121 120/120
f 89/89 90/90 121/121
f 90/90 122/122 121/121
f 90/90 91/91 122/122
f 91/91 123/123 122/122
f 91/91 92/92 123/123
f 92/92 124/124 123/123
f 92/92 93/93 124/124
f 93/93 125/125 124/124
f 93/93 94/94 125/125
f 94/94 126/126 125/125
f 94/94 95/95 126/126
f 95/95 127/127 126/126
f 95/95 96/96 127/127
f 96/96 128/128 127/127
f 97/97 98/98 129/129
f 98/98 130/130 129/129
f 98/98 99/99 130/130
f 99/99 131/131 130/130
f 99/99 100/100 131/131
f 100/100 132/132 131/131
f 100/100 101/101 132/132
f 101/101 133/133 132/132
f 101/101 102/102 133/133
f 102/102 134/134 133/133
f 102/102 103/103 134/134
f 103/103 135/135 134/134
f 103/103 104/104 135/135
f 104/104 136/136 135/135
f 104/104 105/105 136/136
f 105/105 137/137 136/136
f 105/105 106/106 137/137
f 106/106 138/138 137/137
f 106/106 107/107 138/138
f 107/107 139/139 138/138
f 107/107 108/108 139/139
f 108/108 140/140 139/139
f 108/108 109/109 140/140
f 109/109 141/141 140/140
f 109/109 110/110 141/141
f 110/110 142/142 141/141
f 110/110 111/111 142/142
f 111/111 143/143 142/142
f 111/111 112/112 143/143
f 112/112 144/144 143/143
f 112/112 113/113 144/144
f 113/113 145/145 144/144
f 113/113 114/114 145/145
f 114/114 146/146 145/145
f 114/114 115/115 146/146
f 115/115 147/147 146/146
f 115/115 116/116 147/147
f 116/116 148/148 147/147
f 116/116 117/117 148/148
f 117/117 149/149 148/148
f 117/117 118/118 149/149
f 118/118 150/150 149/149
f 118/118 119/119 150/150
f 119/119 151/151 150/150
f 119/119 120/120 151/151
f 120/120 152/152 151/151
f 120/120 121/121 152/152
f 121/121 153/153 152/152
f 121/121 122/122 153/153
f 122/122 154/154 153/153
f 122/122 123/123 154/154
f 123/123 155/155 154/154
f 123/123 124/124 155/155
f 124/124 156/156 155/155
f 124/124 125/125 156/156
f 125/125 157/157 156/156
f 125/125 126/126 157/157
f 126/126 158/158 157/157
f 126/126 127/127 158/158
f 127/127 159/159 158/158
f 127/127 128/128 159/159
f 128/128 160/160 159/159
f 129/129 130/130 161/161
f 130/130 162/162 161/161
f 130/130 131/131 162/162
f 131/131 163/163 162/162
f 131/131 132/132 163/163
f 132/132 164/164 163/163
f 132/132 133/133 164/164
f 133/133 165/165 164/164
f 133/133 134/134 165/165
f 134/134 166/166 165/165
f 134/134 135/135 166/166
f 135/135 167/167 166/166
f 135/135 136/136 167/167
f 136/136 168/168 167/167
f 136/136 137/137 168/168
f 137/137 169/169 168/168
f 137/137 138/138 169/169
f 138/138 170/170 169/169
f 138/138 139/139 170/170
f 139/139 171/171 170/170
f 139/139 140/140 171/171
f 140/140 172/172 171/171
f 140/140 141/141 172/172
f 141/141 173/173 172/172
f 141/141 142/142 173/173
f 142/142 174/174 173/173
f 142/142 143/143 174/174
f 143/143 175/175 174/174
f 143/143 144/144 175/175
f 144/144 176/176 175/175
f 144/144 145/145 176/176
f 145/145 177/177 176/176
f 145/145 146/146 177/177
f 146/146 178/178 177/177
f 146/146 147/147 178/178
f 147/147 179/179 178/178
f 147/147 148/148 179/179
f 148/148 180/180 179/179
f 148/148 149/149 180/180
f 149/149 181/181 180/180
f 149/149 150/150 181/181
f 150/150 182/182 181/181
f 150/150 151/151 182/182
f 151/151 183/183 182/182
f 151/151 152/152 183/183
f 152/152 184/184 183/183
f 152/152 153/153 184/184
f 153/153 185/185 184/184
f 153/153 154/154 185/185
f 154/154 186/186 185/185
f 154/154 155/155 186/186
f 155/155 187/187 186/186
f 155/155 156/156 187/187
f 156/156 188/188 187/187
f 156/156 157/157 188/188
f 157/157 189/189 188/188
f 157/157 158/158 189/189
f 158/158 190/190 189/189
f 158/158 159/159 190/190
f 159/159 191/191 190/190
f 159/159 160/160 191/191
f 160/160 192/192 191/191
f 161/161 162/162 193/193
f 162/162 194/194 193/193
f 162/162 163/163 194/194
f 163/163 195/195 194/194
f 163/163 164/164 195/195
f 164/164 196/196 195/195
f 164/164 165/165 196/196
f 165/165 197/197 196/196
f 165/165 166/166 197/197
f 166/166 198/198 197/197
f 166/166 167/167 198/198
f 167/167 199/199 198/198
f 167/167 168/168 199/199
f 168/168 200/200 199/199
f 168/168 169/169 200/200
f 169/169 201/201 200/200
f 169/169 170/170 201/201
f 170/170 202/202 201/201
f 170/170 171/171 202/202
f 171/171 203/203 202/202
f 171/171 172/172 203/203
f 172/172 204/204 203/203
f 172/172 173/173 204/204
f 173/173 205/205 204/204
f 173/173 174/174 205/205
f 174/174 206/206 205/205
f 174/174 175/175 206/206
f 175/175 207/207 206/206
f 175/175 176/176 207/207
f 176/176 208/208 207/207
f 176/176 177/177 208/208
f 177/177 209/209 208/208
f 177/177 178/178 209/209
f 178/178 210/210 209/209
f 178/178 179/179 210/210
f 179/179 211/211 210/210
f 179/179 180/180 211/211
f 180/180 212/212 211/211
f 180/180 181/181 212/212
f 181/181 213/213 212/212
f 181/181 182/182 213/213
f 182/182 214/214 213/213
f 182/182 183/183 214/214
f 183/183 215/215 214/214
f 183/183 184/184 215/215
f 184/184 216/216 215/215
f 184/184 185/185 216/216
f 185/185 217/217 216/216
f 185/185 186/186 217/217
f 186/186 218/218 217/217
f 186/186 187/187 218/218
f 187/187 219/219 218/218
f 187/187 188/188 219/219
f 188/188 220/220 219/219
f 188/188 189/189 220/220
f 189/189 221/221 220/220
f 189/189 190/190 221/221
f 190/190 222/222 221/221
f 190/190 191/191 222/222
f 191/191 223/223 222/222
f 191/191 192/192 223/223
f 192/192 224/224 223/223
f 193/193 194/194 225/225
f 194/194 226/226 225/225
f 194/194 195/195 226/226
f 195/195 227/227 226/226
f 195/195 196/196 227/227
f 196/196 228/228 227/227
f 196/196 197/197 228/228
f 197/197 229/229 228/228
f 197/197 198/198 229/229
f 198/198 230/230 229/229
f 198/198 199/199 230/230
f 199/199 231/231 230/230
f 199/199 200/200 231/231
f 200/200 232/232 231/231
f 200/200 201/201 232/232
f 201/201 233/233 232/232
f 201/201 202/202 233/233
f 202/202 234/234 233/233
f 202/202 203/203 234/234
f 203/203 235/235 234/234
f 203/203 204/204 235/235
f 204/204 236/236 235/235
f 204/204 205/205 236/236
f 205/205 237/237 236/236
f 205/205 206/206 237/237
f 206/206 238/238 237/237
f 206/206 207/207 238/238
f 207/207 239/239 238/238
f 207/207 208/208 239/239
f 208/208 240/240 239/239
f 208/208 209/209 240/240
f 209/209 241/241 240/240
f 209/209 210/210 241/241
f 210/210 242/242 241/241
f 210/210 211/211 242/242
f 211/211 243/243 242/242
f 211/211 212/212 243/243
f 212/212 244/244 243/243
f 212/212 213/213 244/244
f 213/213 245/245 244/244
f 213/213 214/214 245/245
f 214/214 246/246 245/245
f 214/214 215/215 246/246
f 215/215 247/247 246/246
f 215/215 216/216 247/247
f 216/216 248/248 247/247
f 216/216 217/217 248/248
f 217/217 249/249 248/248
f 217/217 218/218 249/249
f 218/218 250/250 249/249
f 218/218 219/219 250/250
f 219/219 251/251 250/250
f 219/219 220/220 251/251
f 220/220 252/252 251/251
f 220/220 221/221 252/252
f 221/221 253/253 252/252
f 221/221 222/222 253/253
f 222/222 254/254 253/253
f 222/222 223/223 254/254
f 223/223 255/255 254/254
f 223/223 224/224 255/255
f 224/224 256/256 255/255
f 225/225 226/226 257/257
f 226/226 258/258 257/257
f 226/226 227/227 258/258
f 227/227 259/259 258/258
f 227/227 228/228 259/259
f 228/228 260/260 259/259
f 228/228 229/229 260/260
f 229/229 261/261 260/260
f 229/229 230/230 261/261
f 230/230 262/262 261/261
f 230/230 231/231 262/262
f 231/231 263/263 262/262
f 231/231 232/232 263/263
f 232/232 264/264 263/263
f 232/232 233/233 264/264
f 233/233 265/265 264/264
f 233/233 234/234 265/265
f 234/234 266/266 265/265
f 234/234 235/235 266/266
f 235/235 267/267 266/266
f 235/235 236/236 267/267
f 236/236 268/268 267/267
f 236/236 237/237 268/268
f 237/237 269/269 268/268
f 237/237 238/238 269/269
f 238/238 270/270 269/269
f 238/238 239/239 270/270
f 239/239 271/271 270/270
f 239/239 240/240 271/271
f 240/240 272/272 271/271
f 240/240 241/241 272/272
f 241/241 273/273 272/272
f 241/241 242/242 273/273
f 242/242 274/274 273/273
f 242/242 243/243 274/274
f 243/243 275/275 274/274
f 243/243 244/244 275/275
f 244/244 276/276 275/275
f 244/244 245/245 276/276
f 245/245 277/277 276/276
f 245/245 246/246 277/277
f 246/246 278/278 277/277
f 246/246 247/247 278/278
f 247/247 279/279 278/278
f 247/247 248/248 279/279
f 248/248 280/280 279/279
f 248/248 249/249 280/280
f 249/249 281/281 280/280
f 249/249 250/250 281/281
f 250/250 282/282 281/281
f 250/250 251/251 282/282
f 251/251 283/283 282/282
f 251/251 252/252 283/283
f 252/252 284/284 283/283
f 252/252 253/253 284/284
f 253/253 285/285 284/284
f 253/253 254/254 285/285
f 254/254 286/286 285/285
f 254/254 255/255 286/286
f 255/255 287/287 286/286
f 255/255 256/256 287/287
f 256/256 288/288 287/287
f 257/257 258/258 289/289
f 258/258 290/290 289/289
f 258/258 259/259 290/290
f 259/259 291/291 290/290
f 259/259 260/260 291/291
f 260/260 292/292 291/291
f 260/260 261/261 292/292
f 261/261 293/293 292/292
f 261/261 262/262 293/293
f 262/262 294/294 293/293
f 262/262 263/263 294/294
f 263/263 295/295 294/294
f 263/263 264/264 295/295
f 264/264 296/296 295/295
f 264/264 265/265 296/296
f 265/265 297/297 296/296
f 265/265 266/266 297/297
f 266/266 298/298 297/297
f 266/266 267/267 298/298
f 267/267 299/299 298/298
f 267/267 268/268 299/299
f 268/268 300/300 299/299
f 268/268 269/269 300/300
f 269/269 301/301 300/300
f 269/269 270/270 301/301
f 270/270 302/302 301/301
f 270/270 271/271 302/302
f 271/271 303/303 302/302
f 271/271 272/272 303/303
f 272/272 304/304 303/303
f 272/272 273/273 304/304
f 273/273 305/305 304/304
f 273/273 274/274 305/305
f 274/274 306/306 305/305
f 274/274 275/275 306/306
f 275/275 307/307 306/306
f 275/275 276/276 307/307
f 276/276 308/308 307/307
f 276/276 277/277 308/308
f 277/277 309/309 308/308
f 277/277 278/278 309/309
f 278/278 310/310 309/309
f 278/278 279/279 310/310
f 279/279 311/311 310/310
f 279/279 280/280 311/311
f 280/280 312/312 311/311
f 280/280 281/281 312/312
f 281/281 313/313 312/312
f 281/281 282/282 313/313
f 282/282 314/314 313/313
f 282/282 283/283 314/314
f 283/283 315/315 314/314
f 283/283 284/284 315/315
f 284/284 316/316 315/315
f 284/284 285/285 316/316
f 285/285 317/317 316/316
f 285/285 286/286 317/317
f 286/286 318/318 317/317
f 286/286 287/287 318/318
f 287/287 319/319 318/318
f 287/287 288/288 319/319
f 288/288 320/320 319/319
f 289/289 290/290 321/321
f 290/290 322/322 321/321
f 290/290 291/291 322/322
f 291/291 323/323 322/322
f 291/291 292/292 323/323
f 292/292 324/324 323/323
f 292/292 293/293 324/324
f 293/293 325/325 324/324
f 293/293 294/294 325/325
f 294/294 326/326 325/325
f 294/294 295/295 326/326
f 295/295 327/327 326/326
f 295/295 296/296 327/327
f 296/296 328/328 327/327
f 296/296 297/297 328/328
f 297/297 329/329 328/328
f 297/297 298/298 329/329
f 298/298 330/330 329/329
f 298/298 299/299 330/330
f 299/299 331/331 330/330
f 299/299 300/300 331/331
f 300/300 332/332 331/331
f 300/300 301/301 332/332
f 301/301 333/333 332/332
f 301/301 302/302 333/333
f 302/302 334/334 333/333
f 302/302 303/303 334/334
f 303/303 335/335 334/334
f 303/303 304/304 335/335
f 304/304 336/336 335/335
f 304/304 305/305 336/336
f 305/305 337/337 336/336
f 305/305 306/306 337/337
f 306/306 338/338 337/337
f 306/306 307/307 338/338
f 307/307 339/339 338/338
f 307/307 308/308 339/339
f 308/308 340/340 339/339
f 308/308 309/309 340/340
f 309/309 341/341 340/340
f 309/309 310/310 341/341
f 310/310 342/342 341/341
f 310/310 311/311 342/342
f 311/311 343/343 342/342
f 311/311 312/312 343/343
f 312/312 344/344 343/343
f 312/312 313/313 344/344
f 313/313 345/345 344/344
f 313/313 314/314 345/345
f 314/314 346/346 345/345
f 314/314 315/315 346/346
f 315/315 347/347 346/346
f 315/315 316/316 347/347
f 316/316 348/348 347/347
f 316/316 317/317 348/348
f 317/317 349/349 348/348
f 317/317 318/318 349/349
f 318/318 350/350 349/349
f 318/318 319/319 350/350
f 319/319 351/351 350/350
f 319/319 320/320 351/351
f 320/320 352/352 351/351
f 321/321 322/322 353/353
f 322/322 354/354 353/353
f 322/322 323/323 354/354
f 323/323 355/355 354/354
f 323/323 324/324 355/355
f 324/324 356/356 355/355
f 324/324 325/325 356/356
f 325/325 357/357 356/356
f 325/325 326/326 357/357
f 326/326 358/358 357/357
f 326/326 327/327 358/358
f 327/327 359/359 358/358
f 327/327 328/328 359/359
f 328/328 360/360 359/359
f 328/328 329/329 360/360
f 329/329 361/361 360/360
f 329/329 330/330 361/361
f 330/330 362/362 361/361
f 330/330 331/331 362/362
f 331/331 363/363 362/362
f 331/331 332/332 363/363
f 332/332 364/364 363/363
f 332/332 333/333 364/364
f 333/333 365/365 364/364
f 333/333 334/334 365/365
f 334/334 366/366 365/365
f 334/334 335/335 366/366
f 335/335 367/367 366/366
f 335/335 336/336 367/367
f 336/336 368/368 367/367
f 336/336 337/337 368/368
f 337/337 369/369 368/368
f 337/337 338/338 369/369
f 338/338 370/370 369/369
f 338/338 339/339 370/370
f 339/339 371/371 370/370
f 339/339 340/340 371/371
f 340/340 372/372 371/371
f 340/340 341/341 372/372
f 341/341 373/373 372/372
f 341/341 342/342 373/373
f 342/342 374/374 373/373
f 342/342 343/343 374/374
f 343/343 375/375 374/374
f 343/343 344/344 375/375
f 344/344 376/376 375/375
f 344/344 345/345 376/376
f 345/345 377/377 376/376
f 345/345 346/346 377/377
f 346/346 378/378 377/377
f 346/346 347/347 378/378
f 347/347 379/379 378/378
f 347/347 348/348 379/379
f 348/348 380/380 379/379
f 348/348 349/349 380/380
f 349/349 381/381 380/380
f 349/349 350/350 381/381
f 350/350 382/382 381/381
f 350/350 351/351 382/382
f 351/351 383/383 382/382
f 351/351 352/352 383/383
f 352/352 384/384 383/383
f 353/353 354/354 385/385
f 354/354 386/386 385/385
f 354/354 355/355 386/386
f 355/355 387/387 386/386
f 355/355 356/356 387/387
f 356/356 388/388 387/387
f 356/356 357/357 388/388
f 357/357 389/389 388/388
f 357/357 358/358 389/389
f 358/358 390/390 389/389
f 358/358 359/359 390/390
f 359/359 391/391 390/390
f 359/359 360/360 391/391
f 360/360 392/392 391/391
f 360/360 361/361 392/392
f 361/361 393/393 392/392
f 361/361 362/362 393/393
f 362/362 394/394 393/393
f 362/362 363/363 394/394
f 363/363 395/395 394/394
f 363/363 364/364 395/395
f 364/364 396/396 395/395
f 364/364 365/365 396/396
f 365/365 397/397 396/396
f 365/365 366/366 397/397
f 366/366 398/398 397/397
f 366/366 367/367 398/398
f 367/367 399/399 398/398
f 367/367 368/368 399/399
f 368/368 400/400 399/399
f 368/368 369/369 400/400
f 369/369 401/401 400/400
f 369/369 370/370 401/401
f 370/370 402/402 401/401
f 370/370 371/371 402/402
f 371/371 403/403 402/402
f 371/371 372/372 403/403
f 372/372 404/404 403/403
f 372/372 373/373 404/404
f 373/373 405/405 404/404
f 373/373 374/374 405/405
f 374/374 406/406 405/405
f 374/374 375/375 406/406
f 375/375 407/407 406/406
f 375/375 376/376 407/407
f 376/376 408/408 407/407
f 376/376 377/377 408/408
f 377/377 409/409 408/408
f 377/377 378/378 409/409
f 378/378 410/410 409/409
f 378/378 379/379 410/410
f 379/379 411/411 410/410
f 379/379 380/380 411/411
f 380/380 412/412 411/411
f 380/380 381/381 412/412
f 381/381 413/413 412/412
f 381/381 382/382 413/413
f 382/382 414/414 413/413
f 382/382 383/383 414/414
f 383/383 415/415 414/414
f 383/383 384/384 415/415
f 384/384 416/416 415/415
f 385/385 386/386 417/417
f 386/386 418/418 417/417
f 386/386 387/387 418/418
f 387/387 419/419 418/418
f 387/387 388/388 419/419
f 388/388 420/420 419/419
f 388/388 389/389 420/420
f 389/389 421/421 420/420
f 389/389 390/390 421/421
f 390/390 422/422 421/421
f 390/390 391/391 422/422
f 391/391 423/423 422/422
f 391/391 392/392 423/423
f 392/392 424/424 423/423
f 392/392 393/393 424/424
f 393/393 425/425 424/424
f 393/393 394/394 425/425
f 394/394 426/426 425/425
f 394/394 395/395 426/426
f 395/395 427/427 426/426
f 395/395 396/396 427/427
f 396/396 428/428 427/427
f 396/396 397/397 428/428
f 397/397 429/429 428/428
f 397/397 398/398 429/429
f 398/398 430/430 429/429
f 398/398 399/399 430/430
f 399/399 431/431 430/430
f 399/399 400/400 431/431
f 400/400 432/432 431/431
f 400/400 401/401 432/432
f 401/401 433/433 432/432
f 401/401 402/402 433/433
f 402/402 434/434 433/433
f 402/402 403/403 434/434
f 403/403 435/435 434/434
f 403/403 404/404 435/435
f 404/404 436/436 435/435
f 404/404 405/405 436/436
f 405/405 437/437 436/436
f 405/405 406/406 437/437
f 406/406 438/438 437/437
f 406/406 407/407 438/438
f 407/407 439/439 438/438
f 407/407 408/408 439/439
f 408/408 440/440 439/439
f 408/408 409/409 440/440
f 409/409 441/441 440/440
f 409/409 410/410 441/441
f 410/410 442/442 441/441
f 410/410 411/411 442/442
f 411/411 443/443 442/442
f 411/411 412/412 443/443
f 412/412 444/444 443/443
f 412/412 413/413 444/444
f 413/413 445/445 444/444
f 413/413 414/414 445/445
f 414/414 446/446 445/445
f 414/414 415/415 446/446
f 415/415 447/447 446/446
f 415/415 416/416 447/447
f 416/416 448/448 447/447
f 417/417 418/418 449/449
f 418/418 450/450 449/449
f 418/418 419/419 450/450
f 419/419 451/451 450/450
f 419/419 420/420 451/451
f 420/420 452/452 451/451
f 420/420 421/421 452/452
f 421/421 453/453 452/452
f 421/421 422/422 453/453
f 422/422 454/454 453/453
f 422/422 423/423 454/454
f 423/423 455/455 454/454
f 423/423 424/424 455/455
f 424/424 456/456 455/455
f 424/424 425/425 456/456
f 425/425 457/457 456/456
f 425/425 426/426 457/457
f 426/426 458/458 457/457
f 426/426 427/427 458/458
f 427/427 459/459 458/458
f 427/427 428/428 459/459
f 428/428 460/460 459/459
f 428/428 429/429 460/460
f 429/429 461/461 460/460
f 429/429 430/430 461/461
f 430/430 462/462 461/461
f 430/430 431/431 462/462
f 431/431 463/463 462/462
f 431/431 432/432 463/463
f 432/432 464/464 463/463
f 432/432 433/433 464/464
f 433/433 465/465 464/464
f 433/433 434/434 465/465
f 434/434 466/466 465/465
f 434/434 435/435 466/466
f 435/435 467/467 466/466
f 435/435 436/436 467/467
f 436/436 468/468 467/467
f 436/436 437/437 468/468
f 437/437 469/469 468/468
f 437/437 438/438 469/469
f 438/438 470/470 469/469
f 438/438 439/439 470/470
f 439/439 471/471 470/470
f 439/439 440/440 471/471
f 440/440 472/472 471/471
f 440/440 441/441 472/472
f 441/441 473/473 472/472
f 441/441 442/442 473/473
f 442/442 474/474 473/473
f 442/442 443/443 474/474
f 443/443 475/475 474/474
f 443/443 444/444 475/475
f 444/444 476/476 475/475
f 444/444 445/445 476/476
f 445/445 477/477 476/476
f 445/445 446/446 477/477
f 446/446 478/478 477/477
f 446/446 447/447 478/478
f 447/447 479/479 478/478
f 447/447 448/448 479/479
f 448/448 480/480 479/479
f 449/449 450/450 481/481
f 450/450 482/482 481/481
f 450/450 451/451 482/482
f 451/451 483/483 482/482
f 451/451 452/452 483/483
f 452/452 484/484 483/483
f 452/452 453/453 484/484
f 453/453 485/485 484/484
f 453/453 454/454 485/485
f 454/454 486/486 485/485
f 454/454 455/455 486/486
f 455/455 487/487 486/486
f 455/455 456/456 487/487
f 456/456 488/488 487/487
f 456/456 457/457 488/488
f 457/457 489/489 488/488
f 457/457 458/458 489/489
f 458/458 490/490 489/489
f 458/458 459/459 490/490
f 459/459 491/491 490/490
f 459/459 460/460 491/491
f 460/460 492/492 491/491
f 460/460 461/461 492/492
f 461/461 493/493 492/492
f 461/461 462/462 493/493
f 462/462 494/494 493/493
f 462/462 463/463 494/494
f 463/463 495/495 494/494
f 463/463 464/464 495/495
f 464/464 496/496 495/495
f 464/464 465/465 496/496
f 465/465 497/497 496/496
f 465/465 466/466 497/497
f 466/466 498/498 497/497
f 466/466 467/467 498/498
f 467/467 499/499 498/498
f 467/467 468/468 499/499
f 468/468 500/500 499/499
f 468/468 469/469 500/500
f 469/469 501/501 500/500
f 469/469 470/470 501/501
f 470/470 502/502 501/501
f 470/470 471/471 502/502
f 471/471 503/503 502/502
f 471/471 472/472 503/503
f 472/472 504/504 503/503
f 472/472 473/473 504/504
f 473/473 505/505 504/504
f 473/473 474/474 505/505
f 474/474 506/506 505/505
f 474/474 475/475 506/506
f 475/475 507/507 506/506
f 475/475 476/476 507/507
f 476/476 508/508 507/507
f 476/476 477/477 508/508
f 477/477 509/509 508/508
f 477/477 478/478 509/509
f 478/478 510/510 509/509
f 478/478 479/479 510/510
f 479/479 511/511 510/510
f 479/479 480/480 511/511
f 480/480 512/512 511/511
f 481/481 482/482 513/513
f 482/482 514/514 513/513
f 482/482 483/483 514/514
f 483/483 515/515 514/514
f 483/483 484/484 515/515
f 484/484 516/516 515/515
f 484/484 485/485 516/516
f 485/485 517/517 516/516
f 485/485 486/486 517/517
f 486/486 518/518 517/517
f 486/486 487/487 518/518
f 487/487 519/519 518/518
f 487/487 488/488 519/519
f 488/488 520/520 519/519
f 488/488 489/489 520/520
f 489/489 521/521 520/520
f 489/489 490/490 521/521
f 490/490 522/522 521/521
f 490/490 491/491 522/522
f 491/491 523/523 522/522
f 491/491 492/492 523/523
f 492/492 524/524 523/523
f 492/492 493/493 524/524
f 493/493 525/525 524/524
f 493/493 494/494 525/525
f 494/494 526/526 525/525
f 494/494 495/495 526/526
f 495/495 527/527 526/526
f 495/495 496/496 527/527
f 496/496 528/528 527/527
f 496/496 497/497 528/528
f 497/497 529/529 528/528
f 497/497 498/498 529/529
f 498/498 530/530 529/529
f 498/498 499/499 530/530
f 499/499 531/531 530/530
f 499/499 500/500 531/531
f 500/500 532/532 531/531
f 500/500 501/501 532/532
f 501/501 533/533 532/532
f 501/501 502/502 533/533
f 502/502 534/534 533/533
f 502/502 503/503 534/534
f 503/503 535/535 534/534
f 503/503 504/504 535/535
f 504/504 536/536 535/535
f 504/504 505/505 536/536
f 505/505 537/537 536/536
f 505/505 506/506 537/537
f 506/506 538/538 537/537
f 506/506 507/507 538/538
f 507/507 539/539 538/538
f 507/507 508/508 539/539
f 508/508 540/540 539/539
f 508/508 509/509 540/540
f 509/509 541/541 540/540
f 509/509 510/510 541/541
f 510/510 542/542 541/541
f 510/510 511/511 542/542
f 511/511 543/543 542/542
f 511/511 512/512 543/543
f 512/512 544/544 543/543
f 513/513 514/514 545/545
f 514/514 546/546 545/545
f 514/514 515/515 546/546
f 515/515 547/547 546/546
f 515/515 516/516 547/547
f 516/516 548/548 547/547
f 516/516 517/517 548/548
f 517/517 549/549 548/548
f 517/517 518/518 549/549
f 518/518 550/550 549/549
f 518/518 519/519 550/550
f 519/519 551/551 550/550
f 519/519 520/520 551/551
f 520/520 552/552 551/551
f 520/520 521/521 552/552
f 521/521 553/553 552/552
f 521/521 522/522 553/553
f 522/522 554/554 553/553
f 522/522 523/523 554/554
f 523/523 555/555 554/554
f 523/523 524/524 555/555
f 524/524 556/556 555/555
f 524/524 525/525 556/556
f 525/525 557/557 556/556
f 525/525 526/526 557/557
f 526/526 558/558 557/557
f 526/526 527/527 558/558
f 527/527 559/559 558/558
f 527/527 528/528 559/559
f 528/528 560/560 559/559
f 528/528 529/529 560/560
f 529/529 561/561 560/560
f 529/529 530/530 561/561
f 530/530 562/562 561/561
f 530/530 531/531 562/562
f 531/531 563/563 562/562
f 531/531 532/532 563/563
f 532/532 564/564 563/563
f 532/532 533/533 564/564
f 533/533 565/565 564/564
f 533/533 534/534 565/565
f 534/534 566/566 565/565
f 534/534 535/535 566/566
f 535/535 567/567 566/566
f 535/535 536/536 567/567
f 536/536 568/568 567/567
f 536/536 537/537 568/568
f 537/537 569/569 568/568
f 537/537 538/538 569/569
f 538/538 570/570 569/569
f 538/538 539/539 570/570
f 539/539 571/571 570/570
f 539/539 540/540 571/571
f 540/540 572/572 571/571
f 540/540 541/541 572/572
f 541/541 573/573 572/572
f 541/541 542/542 573/573
f 542/542 574/574 573/573
f 542/542 543/543 574/574
f 543/543 575/575 574/574
f 543/543 544/544 575/575
f 544/544 576/576 575/575
f 545/545 546/546 577/577
f 546/546 578/578 577/577
f 546/546 547/547 578/578
f 547/547 579/579 578/578
f 547/547 548/548 579/579
f 548/548 580/580 579/579
f 548/548 549/549 580/580
f 549/549 581/581 580/580
f 549/549 550/550 581/581
f 550/550 582/582 581/581
f 550/550 551/551 582/582
f 551/551 583/583 582/582
f 551/551 552/552 583/583
f 552/552 584/584 583/583
f 552/552 553/553 584/584
f 553/553 585/585 584/584
f 553/553 554/554 585/585
f 554/554 586/586 585/585
f 554/554 555/555 586/586
f 555/555 587/587 586/586
f 555/555 556/556 587/587
f 556/556 588/588 587/587
f 556/556 557/557 588/588
f 557/557 589/589 588/588
f 557/557 558/558 589/589
f 558/558 590/590 589/589
f 558/558 559/559 590/590
f 559/559 591/591 590/590
f 559/559 560/560 591/591
f 560/560 592/592 591/591
f 560/560 561/561 592/592
f 561/561 593/593 592/592
f 561/561 562/562 593/593
f 562/562 594/594 593/593
f 562/562 563/563 594/594
f 563/563 595/595 594/594
f 563/563 564/564 595/595
f 564/564 596/596 595/595
f 564/564 565/565 596/596
f 565/565 597/597 596/596
f 565/565 566/566 597/597
f 566/566 598/598 597/597
f 566/566 567/567 598/598
f 567/567 599/599 598/598
f 567/567 568/568 599/599
f 568/568 600/600 599/599
f 568/568 569/569 600/600
f 569/569 601/601 600/600
f 569/569 570/570 601/601
f 570/570 602/602 601/601
f 570/570 571/571 602/602
f 571/571 603/603 602/602
f 571/571 572/572 603/603
f 572/572 604/604 603/603
f 572/572 573/573 604/604
f 573/573 605/605 604/604
f 573/573 574/574 605/605
f 574/574 606/606 605/605
f 574/574 575/575 606/606
f 575/575 607/607 606/606
f 575/575 576/576 607/607
f 576/576 608/608 607/607
f 577/577 578/578 609/609
f 578/578 610/610 609/609
f 578/578 579/579 610/610
f 579/579 611/611 610/610
f 579/579 580/580 611/611
f 580/580 612/612 611/611
f 580/580 581/581 612/612
f 581/581 613/613 612/612
f 581/581 582/582 613/613
f 582/582 614/614 613/613
f 582/582 583/583 614/614
f 583/583 615/615 614/614
f 583/583 584/584 615/615
f 584/584 616/616 615/615
f 584/584 585/585 616/616
f 585/585 617/617 616/616
f 585/585 586/586 617/617
f 586/586 618/618 617/617
f 586/586 587/587 618/618
f 587/587 619/619 618/618
f 587/587 588/588 619/619
f 588/588 620/620 619/619
f 588/588 589/589 620/620
f 589/589 621/621 620/620
f 589/589 590/590 621/621
f 590/590 622/622 621/621
f 590/590 591/591 622/622
f 591/591 623/623 622/622
f 591/591 592/592 623/623
f 592/592 624/624 623/623
f 592/592 593/593 624/624
f 593/593 625/625 624/624
f 593/593 594/594 625/625
f 594/594 626/626 625/625
f 594/594 595/595 626/626
f 595/595 627/627 626/626
f 595/595 596/596 627/627
f 596/596 628/628 627/627
f 596/596 597/597 628/628
f 597/597 629/629 628/628
f 597/597 598/598 629/629
f 598/598 630/630 629/629
f 598/598 599/599 630/630
f 599/599 631/631 630/630
f 599/599 600/600 631/631
f 600/600 632/632 631/631
f 600/600 601/601 632/632
f 601/601 633/633 632/632
f 601/601 602/602 633/633
f 602/602 634/634 633/633
f 602/602 603/603 634/634
f 603/603 635/635 634/634
f 603/603 604/604 635/635
f 604/604 636/636 635/635
f 604/604 605/605 636/636
f 605/605 637/637 636/636
f 605/605 606/606 637/637
f 606/606 638/638 637/637
f 606/606 607/607 638/638
f 607/607 639/639 638/638
f 607/607 608/608 639/639
f 608/608 640/640 639/639
f 609/609 610/610 641/641
f 610/610 642/642 641/641
f 610/610 611/611 642/642
f 611/611 643/643 642/642
f 611/611 612/612 643/643
f 612/612 644/644 643/643
f 612/612 613/613 644/644
f 613/613 645/645 644/644
f 613/613 614/614 645/645
f 614/614 646/646 645/645
f 614/614 615/615 646/646
f 615/615 647/647 646/646
f 615/615 616/616 647/647
f 616/616 648/648 647/647
f 616/616 617/617 648/648
f 617/617 649/649 648/648
f 617/617 618/618 649/649
f 618/618 650/650 649/649
f 618/618 619/619 650/650
f 619/619 651/651 650/650
f 619/619 620/620 651/651
f 620/620 652/652 651/651
f 620/620 621/621 652/652
f 621/621 653/653 652/652
f 621/621 622/622 653/653
f 622/622 654/654 653/653
f 622/622 623/623 654/654
f 623/623 655/655 654/654
f 623/623 624/624 655/655
f 624/624 656/656 655/655
f 624/624 625/625 656/656
f 625/625 657/657 656/656
f 625/625 626/626 657/657
f 626/626 658/658 657/657
f 626/626 627/627 658/658
f 627/627 659/659 658/658
f 627/627 628/628 659/659
f 628/628 660/660 659/659
f 628/628 629/629 660/660
f 629/629 661/661 660/660
f 629/629 630/630 661/661
f 630/630 662/662 661/661
f 630/630 631/631 662/662
f 631/631 663/663 662/662
f 631/631 632/632 663/663
f 632/632 664/664 663/663
f 632/632 633/633 664/664
f 633/633 665/665 664/664
f 633/633 634/634 665/665
f 634/634 666/666 665/665
f 634/634 635/635 666/666
f 635/635 667/667 666/666
f 635/635 636/636 667/667
f 636/636 668/668 667/667
f 636/636 637/637 668/668
f 637/637 669/669 668/668
f 637/637 638/638 669/669
f 638/638 670/670 669/669
f 638/638 639/639 670/670
f 639/639 671/671 670/670
f 639/639 640/640 671/671
f 640/640 672/672 671/671
f 641/641 642/642 673/673
f 642/642 674/674 673/673
f 642/642 643/643 674/674
f 643/643 675/675 674/674
f 643/643 644/644 675/675
f 644/644 676/676 675/675
f 644/644 645/645 676/676
f 645/645 677/677 676/676
f 645/645 646/646 677/677
f 646/646 678/678 677/677
f 646/646 647/647 678/678
f 647/647 679/679 678/678
f 647/647 648/648 679/679
f 648/648 680/680 679/679
f 648/648 649/649 680/680
f 649/649 681/681 680/680
f 649/649 650/650 681/681
f 650/650 682/682 681/681
f 650/650 651/651 682/682
f 651/651 683/683 682/682
f 651/651 652/652 683/683
f 652/652 684/684 683/683
f 652/652 653/653 684/684
f 653/653 685/685 684/684
f 653/653 654/654 685/685
f 654/654 686/686 685/685
f 654/654 655/655 686/686
f 655/655 687/687 686/686
f 655/655 656/656 687/687
f 656/656 688/688 687/687
f 656/656 657/657 688/688
f 657/657 689/689 688/688
f 657/657 658/658 689/689
f 658/658 690/690 689/689
f 658/658 659/659 690/690
f 659/659 691/691 690/690
f 659/659 660/660 691/691
f 660/660 692/692 691/691
f 660/660 661/661 692/692
f 661/661 693/693 692/692
f 661/661 662/662 693/693
f 662/662 694/694 693/693
f 662/662 663/663 694/694
f 663/663 695/695 694/694
f 663/663 664/664 695/695
f 664/664 696/696 695/695
f 664/664 665/665 696/696
f 665/665 697/697 696/696
f 665/665 666/666 697/697
f 666/666 698/698 697/697
f 666/666 667/667 698/698
f 667/667 699/699 698/698
f 667/667 668/668 699/699
f 668/668 700/700 699/699
f 668/668 669/669 700/700
f 669/669 701/701 700/700
f 669/669 670/670 701/701
f 670/670 702/702 701/701
f 670/670 671/671 702/702
f 671/671 703/703 702/702
f 671/671 672/672 703/703
f 672/672 704/704 703/703
f 673/673 674/674 705/705
f 674/674 706/706 705/705
f 674/674 675/675 706/706
f 675/675 707/707 706/706
f 675/675 676/676 707/707
f 676/676 708/708 707/707
f 676/676 677/677 708/708
f 677/677 709/709 708/708
f 677/677 678/678 709/709
f 678/678 710/710 709/709
f 678/678 679/679 710/710
f 679/679 711/711 710/710
f 679/679 680/680 711/711
f 680/680 712/712 711/711
f 680/680 681/681 712/712
f 681/681 713/713 712/712
f 681/681 682/682 713/713
f 682/682 714/714 713/713
f 682/682 683/683 714/714
f 683/683 715/715 714/714
f 683/683 684/684 715/715
f 684/684 716/716 715/715
f 684/684 685/685 716/716
f 685/685 717/717 716/716
f 685/685 686/686 717/717
f 686/686 718/718 717/717
f 686/686 687/687 718/718
f 687/687 719/719 718/718
f 687/687 688/688 719/719
f 688/688 720/720 719/719
f 688/688 689/689 720/720
f 689/689 721/721 720/720
f 689/689 690/690 721/721
f 690/690 722/722 721/721
f 690/690 691/691 722/722
f 691/691 723/723 722/722
f 691/691 692/692 723/723
f 692/692 724/724 723/723
f 692/692 693/693 724/724
f 693/693 725/725 724/724
f 693/693 694/694 725/725
f 694/694 726/726 725/725
f 694/694 695/695 726/726
f 695/695 727/727 726/726
f 695/695 696/696 727/727
f 696/696 728/728 727/727
f 696/696 697/697 728/728
f 697/697 729/729 728/728
f 697/697 698/698 729/729
f 698/698 730/730 729/729
f 698/698 699/699 730/730
f 699/699 731/731 730/730
f 699/699 700/700 731/731
f 700/700 732/732 731/731
f 700/700 701/701 732/732
f 701/701 733/733 732/732
f 701/701 702/702 733/733
f 702/702 734/734 733/733
f 702/702 703/703 734/734
f 703/703 735/735 734/734
f 703/703 704/704 735/735
f 704/704 736/736 735/735
f 705/705 706/706 737/737
f 706/706 738/738 737/737
f 706/706 707/707 738/738
f 707/707 739/739 738/738
f 707/707 708/708 739/739
f 708/708 740/740 739/739
f 708/708 709/709 740/740
f 709/709 741/741 740/740
f 709/709 710/710 741/741
f 710/710 742/742 741/741
f 710/710 711/711 742/742
f 711/711 743/743 742/742
f 711/711 712/712 743/743
f 712/712 744/744 743/743
f 712/712 713/713 744/744
f 713/713 745/745 744/744
f 713/713 714/714 745/745
f 714/714 746/746 745/745
f 714/714 715/715 746/746
f 715/715 747/747 746/746
f 715/715 716/716 747/747
f 716/716 748/748 747/747
f 716/716 717/717 748/748
f 717/717 749/749 748/748
f 717/717 718/718 749/749
f 718/718 750/750 749/749
f 718/718 719/719 750/750
f 719/719 751/751 750/750
f 719/719 720/720 751/751
f 720/720 752/752 751/751
f 720/720 721/721 752/752
f 721/721 753/753 752/752
f 721/721 722/722 753/753
f 722/722 754/754 753/753
f 722/722 723/723 754/754
f 723/723 755/755 754/754
f 723/723 724/724 755/755
f 724/724 756/756 755/755
f 724/724 725/725 756/756
f 725/725 757/757 756/756
f 725/725 726/726 757/757
f 726/726 758/758 757/757
f 726/726 727/727 758/758
f 727/727 759/759 758/758
f 727/727 728/728 759/759
f 728/728 760/760 759/759
f 728/728 729/729 760/760
f 729/729 761/761 760/760
f 729/729 730/730 761/761
f 730/730 762/762 761/761
f 730/730 731/731 762/762
f 731/731 763/763 762/762
f 731/731 732/732 763/763
f 732/732 764/764 763/763
f 732/732 733/733 764/764
f 733/733 765/765 764/764
f 733/733 734/734 765/765
f 734/734 766/766 765/765
f 734/734 735/735 766/766
f 735/735 767/767 766/766
f 735/735 736/736 767/767
f 736/736 768/768 767/767
f 737/737 738/738 769/769
f 738/738 770/770 769/769
f 738/738 739/739 770/770
f 739/739 771/771 770/770
f 739/739 740/740 771/771
f 740/740 772/772 771/771
f 740/740 741/741 772/772
f 741/741 773/773 772/772
f 741/741 742/742 773/773
f 742/742 774/774 773/773
f 742/742 743/743 774/774
f 743/743 775/775 774/774
f 743/743 744/744 775/775
f 744/744 776/776 775/775
f 744/744 745/745 776/776
f 745/745 777/777 776/776
f 745/745 746/746 777/777
f 746/746 778/778 777/777
f 746/746 747/747 778/778
f 747/747 779/779 778/778
f 747/747 748/748 779/779
f 748/748 780/780 779/779
f 748/748 749/749 780/780
f 749/749 781/781 780/780
f 749/749 750/750 781/781
f 750/750 782/782 781/781
f 750/750 751/751 782/782
f 751/751 783/783 782/782
f 751/751 752/752 783/783
f 752/752 784/784 783/783
f 752/752 753/753 784/784
f 753/753 785/785 784/784
f 753/753 754/754 785/785
f 754/754 786/786 785/785
f 754/754 755/755 786/786
f 755/755 787/787 786/786
f 755/755 756/756 787/787
f 756/756 788/788 787/787
f 756/756 757/757 788/788
f 757/757 789/789 788/788
f 757/757 758/758 789/789
f 758/758 790/790 789/789
f 758/758 759/759 790/790
f 759/759 791/791 790/790
f 759/759 760/760 791/791
f 760/760 792/792 791/791
f 760/760 761/761 792/792
f 761/761 793/793 792/792
f 761/761 762/762 793/793
f 762/762 794/794 793/793
f 762/762 763/763 794/794
f 763/763 795/795 794/794
f 763/763 764/764 795/795
f 764/764 796/796 795/795
f 764/764 765/765 796/796
f 765/765 797/797 796/796
f 765/765 766/766 797/797
f 766/766 798/798 797/797
f 766/766 767/767 798/798
f 767/767 799/799 798/798
f 767/767 768/768 799/799
f 768/768 800/800 799/799
f 769/769 770/770 801/801
f 770/770 802/802 801/801
f 770/770 771/771 802/802
f 771/771 803/803 802/802
f 771/771 772/772 803/803
f 772/772 804/804 803/803
f 772/772 773/773 804/804
f 773/773 805/805 804/804
f 773/773 774/774 805/805
f 774/774 806/806 805/805
f 774/774 775/775 806/806
f 775/775 807/807 806/806
f 775/775 776/776 807/807
f 776/776 808/808 807/807
f 776/776 777/777 808/808
f 777/777 809/809 808/808
f 777/777 778/778 809/809
f 778/778 810/810 809/809
f 778/778 779/779 810/810
f 779/779 811/811 810/810
f 779/779 780/780 811/811
f 780/780 812/812 811/811
f 780/780 781/781 812/812
f 781/781 813/813 812/812
f 781/781 782/782 813/813
f 782/782 814/814 813/813
f 782/782 783/783 814/814
f 783/783 815/815 814/814
f 783/783 784/784 815/815
f 784/784 816/816 815/815
f 784/784 785/785 816/816
f 785/785 817/817 816/816
f 785/785 786/786 817/817
f 786/786 818/818 817/817
f 786/786 787/787 818/818
f 787/787 819/819 818/818
f 787/787 788/788 819/819
f 788/788 820/820 819/819
f 788/788 789/789 820/820
f 789/789 821/821 820/820
f 789/789 790/790 821/821
f 790/790 822/822 821/821
f 790/790 791/791 822/822
f 791/791 823/823 822/822
f 791/791 792/792 823/823
f 792/792 824/824 823/823
f 792/792 793/793 824/824
f 793/793 825/825 824/824
f 793/793 794/794 825/825
f 794/794 826/826 825/825
f 794/794 795/795 826/826
f 795/795 827/827 826/826
f 795/795 796/796 827/827
f 796/796 828/828 827/827
f 796/796 797/797 828/828
f 797/797 829/829 828/828
f 797/797 798/798 829/829
f 798/798 830/830 829/829
f 798/798 799/799 830/830
f 799/799 831/831 830/830
f 799/799 800/800 831/831
f 800/800 832/832 831/831
f 801/801 802/802 833/833
f 802/802 834/834 833/833
f 802/802 803/803 834/834
f 803/803 835/835 834/834
f 803/803 804/804 835/835
f 804/804 836/836 835/835
f 804/804 805/805 836/836
f 805/805 837/837 836/836
f 805/805 806/806 837/837
f 806/806 838/838 837/837
f 806/806 807/807 838/838
f 807/807 839/839 838/838
f 807/807 808/808 839/839
f 808/808 840/840 839/839
f 808/808 809/809 840/840
f 809/809 841/841 840/840
f 809/809 810/810 841/841
f 810/810 842/842 841/841
f 810/810 811/811 842/842
f 811/811 843/843 842/842
f 811/811 812/812 843/843
f 812/812 844/844 843/843
f 812/812 813/813 844/844
f 813/813 845/845 844/844
f 813/813 814/814 845/845
f 814/814 846/846 845/845
f 814/814 815/815 846/846
f 815/815 847/847 846/846
f 815/815 816/816 847/847
f 816/816 848/848 847/847
f 816/816 817/817 848/848
f 817/817 849/849 848/848
f 817/817 818/818 849/849
f 818/818 850/850 849/849
f 818/818 819/819 850/850
f 819/819 851/851 850/850
f 819/819 820/820 851/851
f 820/820 852/852 851/851
f 820/820 821/821 852/852
f 821/821 853/853 852/852
f 821/821 822/822 853/853
f 822/822 854/854 853/853
f 822/822 823/823 854/854
f 823/823 855/855 854/854
f 823/823 824/824 855/855
f 824/824 856/856 855/855
f 824/824 825/825 856/856
f 825/825 857/857 856/856
f 825/825 826/826 857/857
f 826/826 858/858 857/857
f 826/826 827/827 858/858
f 827/827 859/859 858/858
f 827/827 828/828 859/859
f 828/828 860/860 859/859
f 828/828 829/829 860/860
f 829/829 861/861 860/860
f 829/829 830/830 861/861
f 830/830 862/862 861/861
f 830/830 831/831 862/862
f 831/831 863/863 862/862
f 831/831 832/832 863/863
f 832/832 864/864 863/863
f 833/833 834/834 865/865
f 834/834 866/866 865/865
f 834/834 835/835 866/866
f 835/835 867/867 866/866
f 835/835 836/836 867/867
f 836/836 868/868 867/867
f 836/836 837/837 868/868
f 837/837 869/869 868/868
f 837/837 838/838 869/869
f 838/838 870/870 869/869
f 838/838 839/839 870/870
f 839/839 871/871 870/870
f 839/839 840/840 871/871
f 840/840 872/872 871/871
f 840/840 841/841 872/872
f 841/841 873/873 872/872
f 841/841 842/842 873/873
f 842/842 874/874 873/873
f 842/842 843/843 874/874
f 843/843 875/875 874/874
f 843/843 844/844 875/875
f 844/844 876/876 875/875
f 844/844 845/845 876/876
f 845/845 877/877 876/876
f 845/845 846/846 877/877
f 846/846 878/878 877/877
f 846/846 847/847 878/878
f 847/847 879/879 878/878
f 847/847 848/848 879/879
f 848/848 880/880 879/879
f 848/848 849/849 880/880
f 849/849 881/881 880/880
f 849/849 850/850 881/881
f 850/850 882/882 881/881
f 850/850 851/851 882/882
f 851/851 883/883 882/882
f 851/851 852/852 883/883
f 852/852 884/884 883/883
f 852/852 853/853 884/884
f 853/853 885/885 884/884
f 853/853 854/854 885/885
f 854/854 886/886 885/885
f 854/854 855/855 886/886
f 855/855 887/887 886/886
f 855/855 856/856 887/887
f 856/856 888/888 887/887
f 856/856 857/857 888/888
f 857/857 889/889 888/888
f 857/857 858/858 889/889
f 858/858 890/890 889/889
f 858/858 859/859 890/890
f 859/859 891/891 890/890
f 859/859 860/860 891/891
f 860/860 892/892 891/891
f 860/860 861/861 892/892
f 861/861 893/893 892/892
f 861/861 862/862 893/893
f 862/862 894/894 893/893
f 862/862 863/863 894/894
f 863/863 895/895 894/894
f 863/863 864/864 895/895
f 864/864 896/896 895/895
f 865/865 866/866 897/897
f 866/866 898/898 897/897
f 866/866 867/867 898/898
f 867/867 899/899 898/898
f 867/867 868/868 899/899
f 868/868 900/900 899/899
f 868/868 869/869 900/900
f 869/869 901/901 900/900
f 869/869 870/870 901/901
f 870/870 902/902 901/901
f 870/870 871/871 902/902
f 871/871 903/903 902/902
f 871/871 872/872 903/903
f 872/872 904/904 903/903
f 872/872 873/873 904/904
f 873/873 905/905 904/904
f 873/873 874/874 905/905
f 874/874 906/906 905/905
f 874/874 875/875 906/906
f 875/875 907/907 906/906
f 875/875 876/876 907/907
f 876/876 908/908 907/907
f 876/876 877/877 908/908
f 877/877 909/909 908/908
f 877/877 878/878 909/909
f 878/878 910/910 909/909
f 878/878 879/879 910/910
f 879/879 911/911 910/910
f 879/879 880/880 911/911
f 880/880 912/912 911/911
f 880/880 881/881 912/912
f 881/881 913/913 912/912
f 881/881 882/882 913/913
f 882/882 914/914 913/913
f 882/882 883/883 914/914
f 883/883 915/915 914/914
f 883/883 884/884 915/915
f 884/884 916/916 915/915
f 884/884 885/885 916/916
f 885/885 917/917 916/916
f 885/885 886/886 917/917
f 886/886 918/918 917/917
f 886/886 887/887 918/918
f 887/887 919/919 918/918
f 887/887 888/888 919/919
f 888/888 920/920 919/919
f 888/888 889/889 920/920
f 889/889 921/921 920/920
f 889/889 890/890 921/921
f 890/890 922/922 921/921
f 890/890 891/891 922/922
f 891/891 923/923 922/922
f 891/891 892/892 923/923
f 892/892 924/924 923/923
f 892/892 893/893 924/924
f 893/893 925/925 924/924
f 893/893 894/894 925/925
f 894/894 926/926 925/925
f 894/894 895/895 926/926
f 895/895 927/927 926/926
f 895/895 896/896 927/927
f 896/896 928/928 927/927
f 897/897 898/898 929/929
f 898/898 930/930 929/929
f 898/898 899/899 930/930
f 899/899 931/931 930/930
f 899/899 900/900 931/931
f 900/900 932/932 931/931
f 900/900 901/901 932/932
f 901/901 933/933 932/932
f 901/901 902/902 933/933
f 902/902 934/934 933/933
f 902/902 903/903 934/934
f 903/903 935/935 934/934
f 903/903 904/904 935/935
f 904/904 936/936 935/935
f 904/904 905/905 936/936
f 905/905 937/937 936/936
f 905/905 906/906 937/937
f 906/906 938/938 937/937
f 906/906 907/907 938/938
f 907/907 939/939 938/938
f 907/907 908/908 939/939
f 908/908 940/940 939/939
f 908/908 909/909 940/940
f 909/909 941/941 940/940
f 909/909 910/910 941/941
f 910/910 942/942 941/941
f 910/910 911/911 942/942
f 911/911 943/943 942/942
f 911/911 912/912 943/943
f 912/912 944/944 943/943
f 912/912 913/913 944/944
f 913/913 945/945 944/944
f 913/913 914/914 945/945
f 914/914 946/946 945/945
f 914/914 915/915 946/946
f 915/915 947/947 946/946
f 915/915 916/916 947/947
f 916/916 948/948 947/947
f 916/916 917/917 948/948
f 917/917 949/949 948/948
f 917/917 918/918 949/949
f 918/918 950/950 949/949
f 918/918 919/919 950/950
f 919/919 951/951 950/950
f 919/919 920/920 951/951
f 920/920 952/952 951/951
f 920/920 921/921 952/952
f 921/921 953/953 952/952
f 921/921 922/922 953/953
f 922/922 954/954 953/953
f 922/922 923/923 954/954
f 923/923 955/955 954/954
f 923/923 924/924 955/955
f 924/924 956/956 955/955
f 924/924 925/925 956/956
f 925/925 957/957 956/956
f 925/925 926/926 957/957
f 926/926 958/958 957/957
f 926/926 927/927 958/958
f 927/927 959/959 958/958
f 927/927 928/928 959/959
f 928/928 960/960 959/959
f 929/929 930/930 961/961
f 930/930 962/962 961/961
f 930/930 931/931 962/962
f 931/931 963/963 962/962
f 931/931 932/932 963/963
f 932/932 964/964 963/963
f 932/932 933/933 964/964
f 933/933 965/965 964/964
f 933/933 934/934 965/965
f 934/934 966/966 965/965
f 934/934 935/935 966/966
f 935/935 967/967 966/966
f 935/935 936/936 967/967
f 936/936 968/968 967/967
f 936/936 937/937 968/968
f 937/937 969/969 968/968
f 937/937 938/938 969/969
f 938/938 970/970 969/969
f 938/938 939/939 970/970
f 939/939 971/971 970/970
f 939/939 940/940 971/971
f 940/940 972/972 971/971
f 940/940 941/941 972/972
f 941/941 973/973 972/972
f 941/941 942/942 973/973
f 942/942 974/974 973/973
f 942/942 943/943 974/974
f 943/943 975/975 974/974
f 943/943 944/944 975/975
f 944/944 976/976 975/975
f 944/944 945/945 976/976
f 945/945 977/977 976/976
f 945/945 946/946 977/977
f 946/946 978/978 977/977
f 946/946 947/947 978/978
f 947/947 979/979 978/978
f 947/947 948/948 979/979
f 948/948 980/980 979/979
f 948/948 949/949 980/980
f 949/949 981/981 980/980
f 949/949 950/950 981/981
f 950/950 982/982 981/981
f 950/950 951/951 982/982
f 951/951 983/983 982/982
f 951/951 952/952 983/983
f 952/952 984/984 983/983
f 952/952 953/953 984/984
f 953/953 985/985 984/984
f 953/953 954/954 985/985
f 954/954 986/986 985/985
f 954/954 955/955 986/986
f 955/955 987/987 986/986
f 955/955 956/956 987/987
f 956/956 988/988 987/987
f 956/956 957/957 988/988
f 957/957 989/989 988/988
f 957/957 958/958 989/989
f 958/958 990/990 989/989
f 958/958 959/959 990/990
f 959/959 991/991 990/990
f 959/959 960/960 991/991
f 960/960 992/992 991/991
f 961/961 962/962 993/993
f 962/962 994/994 993/993
f 962/962 963/963 994/994
f 963/963 995/995 994/994
f 963/963 964/964 995/995
f 964/964 996/996 995/995
f 964/964 965/965 996/996
f 965/965 997/997 996/996
f 965/965 966/966 997/997
f 966/966 998/998 997/997
f 966/966 967/967 998/998
f 967/967 999/999 998/998
f 967/967 968/968 999/999
f 968/968 1000/1000 999/999
f 968/968 969/969 1000/1000
f 969/969 1001/1001 1000/1000
f 969/969 970/970 1001/1001
f 970/970 1002/1002 1001/1001
f 970/970 971/971 1002/1002
f 971/971 1003/1003 1002/1002
f 971/971 972/972 1003/1003
f 972/972 1004/1004 1003/1003
f 972/972 973/973 1004/1004
f 973/973 1005/1005 1004/1004
f 973/973 974/974 1005/1005
f 974/974 1006/1006 1005/1005
f 974/974 975/975 1006/1006
f 975/975 1007/1007 1006/1006
f 975/975 976/976 1007/1007
f 976/976 1008/1008 1007/1007
f 976/976 977/977 1008/1008
f 977/977 1009/1009 1008/1008
f 977/977 978/978 1009/1009
f 978/978 1010/1010 1009/1009
f 978/978 979/979 1010/1010
f 979/979 1011/1011 1010/1010
f 979/979 980/980 1011/1011
f 980/980 1012/1012 1011/1011
f 980/980 981/981 1012/1012
f 981/981 1013/1013 1012/1012
f 981/981 982/982 1013/1013
f 982/982 1014/1014 1013/1013
f 982/982 983/983 1014/1014
f 983/983 1015/1015 1014/1014
f 983/983 984/984 1015/1015
f 984/984 1016/1016 1015/1015
f 984/984 985/985 1016/1016
f 985/985 1017/1017 1016/1016
f 985/985 986/986 1017/1017
f 986/986 1018/1018 1017/1017
f 986/986 987/987 1018/1018
f 987/987 1019/1019 1018/1018
f 987/987 988/988 1019/1019
f 988/988 1020/1020 1019/1019
f 988/988 989/989 1020/1020
f 989/989 1021/1021 1020/1020
f 989/989 990/990 1021/1021
f 990/990 1022/1022 1021/1021
f 990/990 991/991 1022/1022
f 991/991 1023/1023 1022/1022
f 991/991 992/992 1023/1023
f 992/992 1024/1024 1023/1023
